<?xml version="1.0" encoding="UTF-8" standalone="no"?>
<!-- Created with Inkscape (http://www.inkscape.org/) -->

<svg
   xmlns:dc="http://purl.org/dc/elements/1.1/"
   xmlns:cc="http://creativecommons.org/ns#"
   xmlns:rdf="http://www.w3.org/1999/02/22-rdf-syntax-ns#"
   xmlns:svg="http://www.w3.org/2000/svg"
   xmlns="http://www.w3.org/2000/svg"
   xmlns:xlink="http://www.w3.org/1999/xlink"
   xmlns:sodipodi="http://sodipodi.sourceforge.net/DTD/sodipodi-0.dtd"
   xmlns:inkscape="http://www.inkscape.org/namespaces/inkscape"
   width="912.50781"
   height="449.72626"
   id="svg16637"
   version="1.1"
   inkscape:version="0.47 r22583"
   sodipodi:docname="topo-map.svg">
  <defs
     id="defs16639">
    <inkscape:perspective
       sodipodi:type="inkscape:persp3d"
       inkscape:vp_x="0 : 526.18109 : 1"
       inkscape:vp_y="0 : 1000 : 0"
       inkscape:vp_z="744.09448 : 526.18109 : 1"
       inkscape:persp3d-origin="372.04724 : 350.78739 : 1"
       id="perspective16645" />
    <clipPath
       id="clipPath16999"
       clipPathUnits="userSpaceOnUse">
      <path
         id="path17001"
         d="m 56.180594,36 256.638816,0 0,288 -256.638816,0 0,-288 z" />
    </clipPath>
    <clipPath
       id="clipPath16989"
       clipPathUnits="userSpaceOnUse">
      <path
         id="path16991"
         d="m 56.180594,36 256.638816,0 0,288 -256.638816,0 0,-288 z" />
    </clipPath>
    <clipPath
       id="clipPath16979"
       clipPathUnits="userSpaceOnUse">
      <path
         id="path16981"
         d="m 56.180594,36 256.638816,0 0,288 -256.638816,0 0,-288 z" />
    </clipPath>
    <clipPath
       id="clipPath16969"
       clipPathUnits="userSpaceOnUse">
      <path
         id="path16971"
         d="m 56.180594,36 256.638816,0 0,288 -256.638816,0 0,-288 z" />
    </clipPath>
    <clipPath
       id="clipPath16959"
       clipPathUnits="userSpaceOnUse">
      <path
         id="path16961"
         d="m 56.180594,36 256.638816,0 0,288 -256.638816,0 0,-288 z" />
    </clipPath>
    <clipPath
       id="clipPath16949"
       clipPathUnits="userSpaceOnUse">
      <path
         id="path16951"
         d="m 56.180594,36 256.638816,0 0,288 -256.638816,0 0,-288 z" />
    </clipPath>
    <clipPath
       id="clipPath16939"
       clipPathUnits="userSpaceOnUse">
      <path
         id="path16941"
         d="m 56.180594,36 256.638816,0 0,288 -256.638816,0 0,-288 z" />
    </clipPath>
    <clipPath
       id="clipPath16929"
       clipPathUnits="userSpaceOnUse">
      <path
         id="path16931"
         d="m 56.180594,36 256.638816,0 0,288 -256.638816,0 0,-288 z" />
    </clipPath>
    <clipPath
       id="clipPath16919"
       clipPathUnits="userSpaceOnUse">
      <path
         id="path16921"
         d="m 56.180594,36 256.638816,0 0,288 -256.638816,0 0,-288 z" />
    </clipPath>
    <clipPath
       id="clipPath16909"
       clipPathUnits="userSpaceOnUse">
      <path
         id="path16911"
         d="m 56.180594,36 256.638816,0 0,288 -256.638816,0 0,-288 z" />
    </clipPath>
    <clipPath
       id="clipPath16899"
       clipPathUnits="userSpaceOnUse">
      <path
         id="path16901"
         d="m 56.180594,36 256.638816,0 0,288 -256.638816,0 0,-288 z" />
    </clipPath>
    <clipPath
       id="clipPath16889"
       clipPathUnits="userSpaceOnUse">
      <path
         id="path16891"
         d="m 56.180594,36 256.638816,0 0,288 -256.638816,0 0,-288 z" />
    </clipPath>
    <clipPath
       id="clipPath16879"
       clipPathUnits="userSpaceOnUse">
      <path
         id="path16881"
         d="m 56.180594,36 256.638816,0 0,288 -256.638816,0 0,-288 z" />
    </clipPath>
    <clipPath
       id="clipPath16869"
       clipPathUnits="userSpaceOnUse">
      <path
         id="path16871"
         d="m 56.180594,36 256.638816,0 0,288 -256.638816,0 0,-288 z" />
    </clipPath>
    <clipPath
       id="clipPath16859"
       clipPathUnits="userSpaceOnUse">
      <path
         id="path16861"
         d="m 56.180594,36 256.638816,0 0,288 -256.638816,0 0,-288 z" />
    </clipPath>
    <clipPath
       id="clipPath16849"
       clipPathUnits="userSpaceOnUse">
      <path
         id="path16851"
         d="m 56.180594,36 256.638816,0 0,288 -256.638816,0 0,-288 z" />
    </clipPath>
    <clipPath
       id="clipPath16839"
       clipPathUnits="userSpaceOnUse">
      <path
         id="path16841"
         d="m 56.180594,36 256.638816,0 0,288 -256.638816,0 0,-288 z" />
    </clipPath>
    <clipPath
       id="clipPath16829"
       clipPathUnits="userSpaceOnUse">
      <path
         id="path16831"
         d="m 56.180594,36 256.638816,0 0,288 -256.638816,0 0,-288 z" />
    </clipPath>
    <clipPath
       id="clipPath16819"
       clipPathUnits="userSpaceOnUse">
      <path
         id="path16821"
         d="m 56.180594,36 256.638816,0 0,288 -256.638816,0 0,-288 z" />
    </clipPath>
    <clipPath
       id="clipPath16699"
       clipPathUnits="userSpaceOnUse">
      <path
         id="path16701"
         d="m 56.180594,36 256.638816,0 0,288 -256.638816,0 0,-288 z" />
    </clipPath>
    <clipPath
       id="clipPath16687"
       clipPathUnits="userSpaceOnUse">
      <path
         id="path16689"
         d="m 56.180594,36 256.638816,0 0,288 -256.638816,0 0,-288 z" />
    </clipPath>
    <clipPath
       id="clipPath16677"
       clipPathUnits="userSpaceOnUse">
      <path
         id="path16679"
         d="m 56.180594,36 256.638816,0 0,288 -256.638816,0 0,-288 z" />
    </clipPath>
    <clipPath
       id="clipPath16667"
       clipPathUnits="userSpaceOnUse">
      <path
         id="path16669"
         d="m 56.180594,36 256.638816,0 0,288 -256.638816,0 0,-288 z" />
    </clipPath>
    <inkscape:perspective
       id="perspective16655"
       inkscape:persp3d-origin="0.5 : 0.33333333 : 1"
       inkscape:vp_z="1 : 0.5 : 1"
       inkscape:vp_y="0 : 1000 : 0"
       inkscape:vp_x="0 : 0.5 : 1"
       sodipodi:type="inkscape:persp3d" />
    <inkscape:perspective
       id="perspective17302"
       inkscape:persp3d-origin="0.5 : 0.33333333 : 1"
       inkscape:vp_z="1 : 0.5 : 1"
       inkscape:vp_y="0 : 1000 : 0"
       inkscape:vp_x="0 : 0.5 : 1"
       sodipodi:type="inkscape:persp3d" />
    <clipPath
       clipPathUnits="userSpaceOnUse"
       id="clipPath18393">
      <rect
         style="opacity:0.98999999;fill:none;stroke:#000000;stroke-width:4;stroke-linecap:round;stroke-linejoin:bevel;stroke-miterlimit:10;stroke-opacity:1;stroke-dasharray:none;stroke-dashoffset:0"
         id="rect18395"
         width="878.83289"
         height="422.24371"
         x="-186.75775"
         y="323.03796"
         rx="11.680876"
         ry="15.091784" />
    </clipPath>
    <inkscape:perspective
       id="perspective3834"
       inkscape:persp3d-origin="0.5 : 0.33333333 : 1"
       inkscape:vp_z="1 : 0.5 : 1"
       inkscape:vp_y="0 : 1000 : 0"
       inkscape:vp_x="0 : 0.5 : 1"
       sodipodi:type="inkscape:persp3d" />
    <inkscape:perspective
       id="perspective6165"
       inkscape:persp3d-origin="0.5 : 0.33333333 : 1"
       inkscape:vp_z="1 : 0.5 : 1"
       inkscape:vp_y="0 : 1000 : 0"
       inkscape:vp_x="0 : 0.5 : 1"
       sodipodi:type="inkscape:persp3d" />
  </defs>
  <sodipodi:namedview
     id="base"
     pagecolor="#ffffff"
     bordercolor="#666666"
     borderopacity="1.0"
     inkscape:pageopacity="0.0"
     inkscape:pageshadow="2"
     inkscape:zoom="0.7"
     inkscape:cx="619.97025"
     inkscape:cy="161.14541"
     inkscape:document-units="px"
     inkscape:current-layer="layer1"
     showgrid="false"
     inkscape:window-width="1280"
     inkscape:window-height="747"
     inkscape:window-x="0"
     inkscape:window-y="25"
     inkscape:window-maximized="1" />
  <metadata
     id="metadata16642">
    <rdf:RDF>
      <cc:Work
         rdf:about="">
        <dc:format>image/svg+xml</dc:format>
        <dc:type
           rdf:resource="http://purl.org/dc/dcmitype/StillImage" />
        <dc:title />
      </cc:Work>
    </rdf:RDF>
  </metadata>
  <g
     inkscape:label="Layer 1"
     inkscape:groupmode="layer"
     id="layer1"
     transform="translate(200.03099,-305.18492)">
    <rect
       style="opacity:0.98999999;fill:#ffffff;fill-opacity:1;stroke:#000000;stroke-width:5.46199989;stroke-linecap:round;stroke-linejoin:bevel;stroke-miterlimit:10;stroke-opacity:1;stroke-dasharray:none;stroke-dashoffset:0"
       id="rect2869"
       width="907.04584"
       height="444.26425"
       x="-197.29999"
       y="307.91592"
       rx="18.391541"
       ry="22.451656" />
    <g
       id="g17874"
       clip-path="url(#clipPath18393)">
      <g
         id="g16657"
         inkscape:label="map"
         transform="matrix(1.1891672,0,0,-1.1891672,-194.24439,734.94309)">
        <path
           d="M 0,0 360,0 360,360 0,360 0,0"
           style="fill:#ffffff;fill-opacity:1;fill-rule:nonzero;stroke:#ffffff;stroke-width:1;stroke-linecap:square;stroke-linejoin:round;stroke-miterlimit:10;stroke-opacity:1;stroke-dasharray:none"
           id="path16659" />
        <path
           d="m 56.180594,36 256.638816,0 0,288 -256.638816,0 0,-288"
           style="fill:#ffffff;fill-opacity:1;fill-rule:nonzero;stroke:none"
           id="path16661" />
        <g
           id="g16663">
          <g
             id="g16665"
             clip-path="url(#clipPath16667)">
            <path
               d="m 192.7283,324 -1.21832,-0.53005 -0.48245,-1.22873 -1.97227,-2.51422 0.002,-1.38698 1.12694,2.27354 1.00493,0.19711 0.50385,-1.60158 1.34484,-0.16162 -0.38968,1.09323 1.35233,0.72951 -0.6464,-1.00265 0.38741,-1.10038 0.51292,1.14075 1.12415,0.23528 -0.41353,2.191 1.03139,0.73156 1.08377,0.28553 4.89952,-0.58475 1.09318,0.28991 3.54579,-0.35643 1.24947,-0.17605 -0.86464,-3.82094 -1.16906,-1.44984 -1.04115,-0.67971 0.24733,-1.15064 -3.574,-0.0331 -0.24471,-1.03422 -1.07873,0.1762 -2.45001,-0.77311 -1.35911,-0.26137 1.1452,-0.31858 1.3069,0.43286 0.79103,-1.0842 1.15096,0.48901 1.01885,0.82804 1.10275,0.3043 -0.91982,-2.13255 -0.36132,-1.03209 1.00789,0.67522 0.64153,1.16054 1.07647,0.60139 1.70597,2.0161 1.28097,-0.67781 1.29507,0.81552 1.20491,-0.41603 -1.02444,0.53033 -1.3163,-0.13328 0.0117,1.11477 1.01728,0.77006 -0.0475,1.16934 1.00737,0.59418 0.43006,1.03361 1.08621,-0.0258 1.14764,0.47291 -0.35156,-1.30705 1.13807,0.89597 0.89354,-1.00307 -0.56094,1.09318 1.05523,0.0761 0.78407,-1.01696 1.06951,0.50369 -0.13332,-1.01722 2.02465,0.21393 0.38029,-1.00294 2.05564,0.81011 -0.36376,-1.35662 1.04811,0.58706 -0.43007,-1.14334 0.93844,1.01963 0.1784,-1.05292 1.05,0.20916 0.37072,-1.11238 1.05053,0.49917 0.21374,-1.0223 1.01728,0.77047 -0.40412,-1.13134 0.0807,-1.02724 1.16435,0.22806 -0.10895,1.05101 1.05958,-0.0477 1.01225,-0.46117 0.47061,-1.01747 1.12137,-0.33266 0.29466,-1.04125 -1.01208,-1.35085 -1.32586,-0.74213 1.05001,0.45201 1.05296,0.30186 -0.89145,-4.32685 -0.20658,-1.06884 1.11701,0.82371 0.62012,1.2873 1.09787,-0.23826 1.00266,1.08504 2.2149,0.66158 1.10239,0.209 0.18275,1.00619 1.43099,-0.22367 6.22539,-2.4212 1.09092,0.49704 1.31177,-0.78988 1.04809,-0.18807 1.06446,-0.54713 1.05958,0.52346 5.27093,0.44224 1.61582,-0.37082 2.48066,-1.50395 1.25016,-0.46643 1.04166,-1.06502 4.05523,-2.75648 0.73917,-1.24124 6.18048,-4.789 1.02427,0.16477 1.05278,-0.75613 1.3807,-0.32189 3.73552,0.22424 2.42374,-0.75408 1.20473,-2.04546 0.18536,-1.2752 0.56077,-1.18473 0.50856,-2.16545 0.90327,-3.29676 -0.26629,-1.02471 0.68417,-1.2314 -0.44206,-4.23448 -2.37135,-6.30694 -5.67001,-6.45648 -0.65337,-1.32615 -1.15026,-0.30953 -1.1687,-0.85591 -1.98656,-2.45373 -6.27377,-10.14056 -1.25921,-0.86797 -0.0261,1.01181 -0.95063,1.06239 -0.98631,-1.09389 0.0715,-1.06812 -1.337,-2.08383 0.61211,-1.12244 -0.66067,-2.26049 0.30422,-1.80828 -0.29709,-3.19372 0.30214,-1.0943 -0.0834,-1.38113 0.76771,-3.61332 -1.25956,-4.85103 -0.73202,-3.93079 0.15682,-1.61913 -1.43274,-2.15344 -1.09561,-1.60749 -0.66554,-3.09178 -0.31329,-5.28783 -1.1976,-0.96412 -0.83889,-1.14994 -0.17352,-1.49013 -2.22429,-3.70894 -1.24494,-0.81369 -0.88918,-2.56356 -0.64605,-1.08237 0.55031,-2.42428 -1.41306,-1.29034 -2.63781,-0.97026 -0.99763,-1.09965 -0.73934,-1.41322 0.0618,-1.0208 -5.79585,-0.60118 -0.39682,1.02897 -1.26409,0.0156 0.58932,-1.07315 -1.37582,-0.27603 -1.3163,0.0877 -1.01259,0.44927 -2.30017,-0.78988 -1.12381,0.57574 -1.33804,-0.56047 -0.24245,-1.09554 1.16923,-0.43455 -4.12276,-1.46849 -1.05505,-0.57044 0.10442,-1.1211 -3.64258,-0.003 -0.84377,-1.12508 -1.11997,0.58021 -9.44504,-7.61319 -1.00494,-2.24189 0.13786,1.04683 -1.01486,0.23916 -0.56773,-1.03879 -1.01259,-0.10529 1.03156,-0.66341 -0.70122,-3.94786 -1.12868,0.0927 0.65336,-2.67639 0.0954,-4.34959 0.47498,-1.05922 -0.009,-1.09842 -0.37541,-1.26134 0,-2.24909 -0.72717,-2.28919 0.0996,1.08588 -2.05058,-2.75072 -1.25938,-1.07438 -2.12683,-2.52629 -2.47125,-4.46775 -1.17864,-3.47679 -2.59516,-4.20638 -3.97065,-3.99101 -1.9486,-1.20287 -1.44475,-1.65397 0.15716,2.34793 1.1313,-0.36914 1.11144,0.67122 1.0601,1.36806 1.21187,0.552 0.59176,1.25547 -0.1234,1.12799 1.15704,0.56344 1.70372,3.01833 -0.28525,1.45585 1.11736,0.61682 -1.35702,-0.16216 -1.35911,-0.61167 -1.0434,1.00494 -0.2233,1.17051 -0.5465,-1.11567 0.84324,-1.02669 -0.70088,-1.32652 0.12828,-1.40904 -0.42989,1.11375 -0.0597,-1.61203 -0.56548,-1.25269 -3.1462,-3.1539 -0.0713,-1.07108 -1.10727,-0.38575 0.67494,-1.30375 -0.28039,-1.00904 -1.52567,-3.57254 -0.96943,-2.94151 -1.14764,-1.66097 -4.04235,-4.1285 -0.26595,-1.11768 -3.01062,-3.33435 -3.08946,-1.94211 -1.31159,-0.61968 -2.35273,0.0982 -2.5233,1.11183 -3.38882,-1.01872 -0.23496,1.10259 -1.26182,-0.21711 -1.43065,0.51481 -1.48303,1.09721 -1.61078,0.59369 -2.11046,-0.12644 -3.25793,3.01524 -0.71724,1.15132 -0.0618,2.24517 0.42014,1.18738 -0.0303,1.45202 -0.3091,-1.12496 -0.66085,-1.12704 -0.12809,-2.48948 0.76736,-1.12532 0.24244,-1.00977 -1.16192,-0.76697 0.36358,-1.15438 1.92928,-2.18748 3.73082,-1.88886 1.88942,-2.0024 0.44155,-1.03212 -1.5255,-2.63109 0.0479,-1.01524 0.81035,-1.51374 1.23572,-1.04969 1.18333,-0.0704 0.82427,-3.869611 -2.63781,-4.384929 -1.65777,-1.695951 -1.38627,-3.332711 -1.09282,-0.756661 -6.60115,-2.787018 -11.46327,-2.221142 -4.44387,-0.06091 -1.15478,0.354535 -1.28305,1.061944 -0.64432,-1.119794 -0.0755,-1.082627 0.67442,-1.109896 1.00076,-0.51315 -1.42804,0.175344 1.58241,-1.143391 -0.45165,-2.202072 -1.07646,-0.84468 -0.24488,-1.546969 -0.59158,-1.371557 0.007,-1.137973 0.97221,-1.196277 -0.16377,-2.304695 -1.83721,-0.940562 -1.05506,0.201509 -1.67274,-1.412053 -3.88798,-0.06288 -4.28671,2.267616 -1.26913,0.357867 -1.38974,0.762441 -0.88397,-1.777696 0.91251,-6.243696 -0.37071,-1.16168 0.57748,-1.589531 2.07652,-0.757016 -0.0781,-1.339998 2.8444,-0.183242 0.25637,1.31152 -1.34484,0.06384 3.09868,1.359524 0.92435,-1.84414 -0.13297,-3.450769 -2.65904,-0.910561 -1.72496,2.78734 -1.5067,0.122539 -2.13674,-1.785957 2.30278,-1.454761 1.20699,-0.285643 -3.21233,-2.343516 -0.37802,-1.113743 -1.72496,-2.913077 0.64153,-2.435221 -0.12375,-1.995281 -0.61055,-2.100357 -1.1929,-0.487824 -0.72002,-1.207638 1.03156,-1.045679 -3.9528,-0.55077 -40.855256,0 2.540871,1.09094 1.021814,0.984371 0.96264,2.771897 -1.288277,-0.06011 -1.394791,1.033722 -0.439288,2.320651 0.501248,1.032342 1.139816,0.158356 0.03829,1.328525 -0.579742,-1.032103 -0.118872,1.170301 -0.667112,1.334613 0.06387,1.187171 1.142427,0.668515 -0.01149,1.611699 1.057668,0.861578 -1.021814,1.186201 0.0047,1.144614 1.024251,0.739174 -0.08319,0.389989 0,0 -0.584962,1.10664 1.110402,1.114574 0.650926,-2.501752 0.168475,1.008388 0.4372,1.028515 -0.555899,1.269179 -2.305042,1.304829 1.209782,1.170361 1.639324,0.477386 0.506468,1.395393 -0.126007,1.04951 -0.30684,-2.142666 -1.118758,-0.441883 -1.012764,1.385849 -1.169055,0.463288 -1.0883,-2.155262 -3.207985,0.07646 0.256541,1.075562 -1.151999,1.348772 0.07345,1.022223 -0.63474,2.180697 1.169056,5.069578 0.25219,2.481505 1.095087,0.660263 1.012764,0.01861 -0.287521,1.104578 1.126241,2.35023 -1.16923,4.521685 -0.527528,1.261074 -0.247143,1.980471 0.347044,1.108322 1.74e-4,1.552441 -1.093173,2.131427 0.104253,3.777936 2.549924,0.163843 0.297093,1.004259 -0.12827,1.587052 0.277774,1.402507 1.06724,0.505845 2.102803,5.523811 -0.430062,1.12044 1.487557,2.6883 1.007367,0.61608 0.432675,2.33124 0.570343,2.13169 0.313628,2.75526 1.962697,3.47246 -0.522655,1.08882 0.304231,1.01246 -0.480015,1.17573 1.102049,0.64656 0.04299,1.43775 0.670593,1.24252 -0.256716,2.34217 -0.399432,1.07258 0.166387,2.17341 -0.760574,5.38859 -0.384638,2.48948 0.270638,1.55517 1.088301,0.80368 1.164357,2.1911 -0.394386,1.02457 0.01897,2.33355 -0.708012,1.1442 -0.137845,2.41351 1.102572,1.14397 1.235889,5.84216 1.030864,1.00371 -0.270465,2.59119 0.532227,1.06838 0.104428,1.09279 1.005106,3.32001 0.187967,2.27984 -0.480013,1.0089 0.147066,1.13467 0.872136,1.15099 0.420492,1.16542 -0.684342,3.54544 0.109473,2.25699 0.218601,2.20927 0.0952,1.04497 0.551197,1.16334 -0.978999,3.6083 1.028777,0.0389 0.61542,1.02002 0.413877,5.02565 0.708014,3.13374 -0.190231,3.9473 -0.413528,1.15407 0.09537,2.41114 0.346695,2.11642 -1.373905,7.36129 0.137843,1.40483 -0.415966,1.42543 -3.892154,2.72512 -1.458839,1.05305 -0.07345,1.22917 -0.651449,1.00111 -4.051229,2.28511 -1.492605,1.38508 -1.739225,0.39689 -4.93816,2.41787 -1.411151,0.55441 -1.060279,1.09288 -3.578351,1.8278 -1.173929,0.71015 L 56.180594,324 l 136.547706,0 0,0"
               style="fill:#008000;fill-opacity:1;fill-rule:nonzero;stroke:none"
               id="path16671" />
          </g>
        </g>
        <g
           id="g16673">
          <g
             id="g16675"
             clip-path="url(#clipPath16677)">
            <path
               d="m 176.55053,312.49006 -0.88711,-1.41727 -2.72484,-1.18278 -1.03451,0.25209 -1.53507,-0.27268 -0.9569,-3.87174 -0.70332,-1.66771 0.0397,1.20442 0.41491,1.03124 0.15369,2.57112 0.62586,1.16391 1.22283,0.41223 -1.10883,0.53115 -3.25863,0.002 1.11196,0.0349 -1.23867,0.23142 1.32274,0.37097 1.3941,-0.57705 -2.15293,1.59478 -3.22695,-0.88453 -1.0535,-0.79426 -1.26112,-1.62205 -1.61113,-0.50586 -1.4162,0.47732 -1.42734,-0.379 -0.79851,1.05453 -3.33295,-2.43908 -0.91896,-1.84179 -1.85983,-0.0603 -0.79051,-1.16308 -1.01398,-0.13969 -1.0803,0.84579 -4.5577,0.44744 -2.02779,-1.00439 -1.18976,0.18728 -1.6999,-0.23806 -0.88397,-1.03004 -3.20955,-0.47452 -2.29391,-1.93696 -1.04548,-0.0239 -2.00725,1.16545 -1.62679,-0.92721 -3.19545,-0.92107 -1.06133,-0.85774 -1.02025,-1.40927 0.79208,1.33934 -1.23885,0.27324 1.34972,0.87676 1.09943,0.16195 -2.33828,0.88769 -1.18646,-0.0508 -2.59501,1.08751 -2.49979,1.82846 -0.57661,-1.23794 -0.37715,2.38194 -1.29734,0.96778 -0.79381,1.01201 -3.57382,1.69533 -1.12799,-0.0428 -1.3417,-0.57087 -1.27853,0.5582 -1.21344,-0.32343 -1.57006,-0.89286 -1.19916,0.78339 -1.127983,-0.31556 -1.835992,-0.89135 -1.134249,-1.73858 0.405524,-1.16308 -1.696759,-0.9601 -2.596392,-0.12379 -1.007542,0.32374 -2.691598,0.0397 -0.375413,-1.07289 -1.124847,-1.51308 0.847597,-1.01473 -1.655513,-1.25487 -1.446307,-0.51473 -0.841154,1.44081 -1.316648,1.50392 -2.24639,0.0111 -2.029183,-0.14922 -3.005223,1.50664 -1.402102,2.51378 -2.300168,-1.29638 -2.165634,0.32215 0.525961,0.0857 0,0 1.720429,-0.22852 2.447585,1.12193 0.977434,-2.22177 1.238846,-0.95249 1.216744,0.19367 1.230842,-0.93513 3.855953,0.4557 1.948425,-2.75702 1.314905,-0.0222 1.18507,0.96259 -0.719327,1.17835 2.973547,2.91447 5.959799,-0.0841 1.00911,2.79249 1.798052,1.10869 1.029647,1.1577 2.663054,-0.92138 1.13912,1.15605 1.26878,0.15538 1.4068,-0.71517 0.64797,1.01647 1.17863,-0.17761 1.44648,-1.01645 1.28306,1.16075 0.28369,-1.25112 1.0011,-0.55987 0.85386,-1.19912 3.04491,-2.23066 0.94889,-1.28236 1.24841,-0.78739 3.70697,-0.7731 1.37026,-0.524 1.10431,-0.79875 1.91519,1.19257 1.09786,0 0.87928,1.00653 2.5299,-1.41466 1.58572,0.37633 0.92835,1.18278 1.72688,0.41108 1.11841,-0.13812 1.22283,0.77301 0.44207,1.13625 1.5114,-0.22218 2.19714,0.13969 -1.05506,1.07412 -1.03434,-0.0888 -3.57714,3.40691 -0.11731,1.08143 -0.82218,1.33167 -1.56675,1.20473 -0.72246,2.3804 -2.91315,0.54046 -4.553,2.2738 -0.59106,1.24845 -1.80901,0.78106 -1.57632,1.14385 -3.07797,0.33586 -1.76499,-0.25511 -2.36352,-0.79213 -1.44474,0.60677 -1.02338,0.0602 -1.26739,0.67966 -4.3264,-0.55136 1.30377,0.40398 1.28636,0.48314 4.75889,-0.99803 2.60284,0.11884 2.54261,0.67486 1.56048,-0.0681 1.59686,-0.53233 1.07246,-0.91405 2.52678,-1.28651 2.21941,-1.28964 3.74352,-2.10585 1.38766,-0.23613 1.13911,-1.44531 0.44034,-1.28697 1.32448,-1.23481 0.59871,-1.29684 2.02935,-1.92032 1.60487,-2.06349 1.42733,-0.0793 1.04879,-0.65368 1.56519,0.56008 4.16157,-1.03766 1.65394,-0.15389 2.00238,0.41567 1.04566,1.81805 2.65505,1.5749 0.48959,1.10362 1.22614,-0.046 1.28305,-0.58195 2.16407,-0.39169 1.494,0.71994 0.54963,1.04014 1.16749,0.68802 0.62255,1.04943 1.0742,-0.0571 1.29577,0.43908 1.57788,-0.36302 1.24529,-1.02083 1.43047,0.91307 1.62383,-0.42011 0.006,-1.8374 2.18303,-0.006 1.00441,0.84663 0.70959,1.49966 2.31774,0.84958 2.64566,0.56739 1.18489,0.88756 -0.6337,-1.12211 -4.40871,-0.98903 0,0"
               style="fill:#ffffff;fill-opacity:1;fill-rule:nonzero;stroke:none"
               id="path16681" />
          </g>
        </g>
        <g
           id="g16683">
          <g
             id="g16685"
             clip-path="url(#clipPath16687)">
            <path
               d="m 192.7283,324 -1.21832,-0.53005 -0.48245,-1.22872 -1.97227,-2.51423 0.002,-1.38699 1.12693,2.27355 1.00494,0.19711 0.50385,-1.60159 1.34484,-0.16161 -0.38968,1.09322 1.35232,0.72951 -0.6464,-1.00264 0.38743,-1.10038 0.5129,1.14076 1.12416,0.23528 -0.41353,2.19099 1.03138,0.73156 1.08378,0.28552 4.89952,-0.58475 1.09317,0.28992 3.54581,-0.35644 1.24946,-0.17605 -0.86465,-3.82094 -1.16906,-1.44982 -1.04113,-0.67971 0.24732,-1.15065 -3.574,-0.0331 -0.24471,-1.03423 -1.07873,0.17621 -2.45002,-0.77311 -1.35911,-0.26137 1.14521,-0.31859 1.3069,0.43286 0.79103,-1.0842 1.15096,0.489 1.01885,0.82806 1.10275,0.30428 -0.91983,-2.13254 -0.36131,-1.0321 1.00789,0.67524 0.64153,1.16054 1.07646,0.60139 1.70598,2.01609 1.28097,-0.67781 1.29506,0.81552 1.20491,-0.41602 -1.02442,0.53032 -1.3163,-0.13327 0.0117,1.11477 1.01729,0.77006 -0.0475,1.16934 1.00736,0.59417 0.43007,1.03361 1.08621,-0.0258 1.14765,0.47291 -0.35157,-1.30704 1.13807,0.89596 0.89355,-1.00305 -0.56095,1.09317 1.05523,0.0761 0.78407,-1.01697 1.0695,0.50368 -0.13331,-1.01721 2.02465,0.21392 0.38029,-1.00293 2.05564,0.81011 -0.36375,-1.35662 1.04809,0.58706 -0.43006,-1.14334 0.93844,1.01962 0.1784,-1.05291 1.05001,0.20916 0.37071,-1.11238 1.05054,0.49916 0.21372,-1.02229 1.01729,0.77047 -0.40413,-1.13134 0.0808,-1.02724 1.16435,0.22806 -0.10895,1.05102 1.05958,-0.0477 1.01225,-0.46117 0.47061,-1.01747 1.12137,-0.33267 0.29466,-1.04124 -1.01207,-1.35086 -1.32587,-0.74212 1.05001,0.45202 1.05297,0.30186 -0.89146,-4.32687 -0.20659,-1.06884 1.11702,0.82371 0.62012,1.2873 1.09787,-0.23825 1.00267,1.08504 2.21489,0.66157 1.10239,0.20902 0.18275,1.00618 1.43099,-0.22366 6.22539,-2.42122 1.09091,0.49704 1.31178,-0.78988 1.04809,-0.18807 1.06446,-0.54713 1.05958,0.52347 5.27093,0.44223 1.61583,-0.37082 2.48065,-1.50395 1.25016,-0.46642 1.04166,-1.06502 4.05523,-2.75647 0.73917,-1.24126 6.18049,-4.78899 1.02425,0.16477 1.05279,-0.75612 1.38069,-0.3219 3.73552,0.22423 2.42374,-0.75407 1.20473,-2.04546 0.18536,-1.27519 0.56077,-1.18474 0.50856,-2.16545 0.90329,-3.29675 -0.26629,-1.02473 0.68417,-1.23139 -0.44207,-4.23448 -2.37136,-6.30693 -5.67001,-6.45649 -0.65337,-1.32616 -1.15025,-0.30953 -1.16871,-0.85589 -1.98654,-2.45375 -6.27378,-10.14054 -1.25921,-0.86799 -0.0261,1.01183 -0.95063,1.06237 -0.98631,-1.09388 0.0715,-1.06812 -1.33701,-2.08382 0.61211,-1.12245 -0.66067,-2.26049 0.30423,-1.80827 -0.2971,-3.19373 0.30215,-1.0943 -0.0834,-1.38113 0.76771,-3.61331 -1.25956,-4.85104 -0.73203,-3.93079 0.15681,-1.61914 -1.43273,-2.15343 -1.09561,-1.60749 -0.66555,-3.09178 -0.31328,-5.28783 -1.19759,-0.96412 -0.8389,-1.14994 -0.17352,-1.49012 -2.22429,-3.70896 -1.24494,-0.81368 -0.88919,-2.56356 -0.64605,-1.08237 0.55033,-2.42427 -1.41307,-1.29035 -2.63781,-0.97026 -0.99763,-1.09966 -0.73934,-1.41321 0.0618,-1.02079 -5.79585,-0.60119 -0.39682,1.02897 -1.26409,0.0156 0.58932,-1.07314 -1.37582,-0.27604 -1.3163,0.0877 -1.01259,0.44928 -2.30017,-0.78988 -1.1238,0.57574 -1.33806,-0.56047 -0.24244,-1.09554 1.16923,-0.43456 -4.12276,-1.46848 -1.05506,-0.57044 0.10443,-1.1211 -3.64258,-0.003 -0.84376,-1.12509 -1.11998,0.58021 -9.44504,-7.61318 -1.00493,-2.2419 0.13784,1.04684 -1.01485,0.23916 -0.56773,-1.0388 -1.01259,-0.10528 1.03156,-0.66342 -0.70123,-3.94786 -1.12867,0.0927 0.65336,-2.6764 0.0954,-4.34959 0.47496,-1.05922 -0.009,-1.09842 -0.37541,-1.26133 0,-2.2491 -0.72716,-2.28919 0.0996,1.08589 -2.05059,-2.75073 -1.25939,-1.07438 -2.12682,-2.5263 -2.47126,-4.46774 -1.17862,-3.47679 -2.59518,-4.20638 -3.97065,-3.991 -1.9486,-1.20288 -1.44474,-1.65398 0.15716,2.34794 1.13129,-0.36914 1.11145,0.67122 1.0601,1.36806 1.21187,0.552 0.59175,1.25547 -0.12339,1.12799 1.15704,0.56344 1.70372,3.01834 -0.28525,1.45584 1.11736,0.61682 -1.35702,-0.16215 -1.35912,-0.61168 -1.04339,1.00494 -0.2233,1.17051 -0.5465,-1.11567 0.84324,-1.02669 -0.70087,-1.32652 0.12827,-1.40904 -0.42989,1.11375 -0.0597,-1.61203 -0.56547,-1.25269 -3.1462,-3.1539 -0.0714,-1.07108 -1.10727,-0.38575 0.67495,-1.30375 -0.28039,-1.00904 -1.52567,-3.57254 -0.96943,-2.94151 -1.14764,-1.66097 -4.04236,-4.12849 -0.26594,-1.11769 -3.01062,-3.33435 -3.08946,-1.94211 -1.3116,-0.61968 -2.35273,0.0982 -2.52329,1.11184 -3.38882,-1.01873 -0.23496,1.1026 -1.26182,-0.21712 -1.43065,0.51481 -1.48303,1.09722 -1.61078,0.59368 -2.11046,-0.12644 -3.25793,3.01524 -0.71724,1.15133 -0.0618,2.24516 0.42015,1.18738 -0.0303,1.45202 -0.3091,-1.12496 -0.66085,-1.12704 -0.12809,-2.48948 0.76736,-1.12533 0.24244,-1.00976 -1.16192,-0.76697 0.36358,-1.15438 1.92928,-2.18748 3.73082,-1.88886 1.88942,-2.0024 0.44155,-1.03212 -1.5255,-2.63109 0.0479,-1.01524 0.81035,-1.51375 1.23571,-1.04968 1.18333,-0.0704 0.82427,-3.869609 -2.63781,-4.384933 -1.65778,-1.69595 -1.38626,-3.332711 -1.09282,-0.75666 -6.60116,-2.787017 -11.46325,-2.221142 -4.44388,-0.06091 -1.15478,0.354538 -1.28306,1.061942 -0.64431,-1.119794 -0.0755,-1.082625 0.67442,-1.109897 1.00075,-0.513151 -1.42803,0.175343 1.58241,-1.14339 -0.45164,-2.202073 -1.07647,-0.84468 -0.24488,-1.546968 -0.59158,-1.371557 0.007,-1.137973 0.97221,-1.196278 -0.16378,-2.304693 -1.83721,-0.940564 -1.05506,0.20151 -1.67274,-1.412052 -3.88797,-0.06288 -4.28672,2.267616 -1.26913,0.357866 -1.38974,0.762444 -0.88397,-1.777699 0.91251,-6.243695 -0.37071,-1.16168 0.57748,-1.589531 2.07652,-0.757016 -0.0781,-1.339998 2.84441,-0.183241 0.25637,1.311519 -1.34484,0.06384 3.09868,1.359523 0.92435,-1.84414 -0.13297,-3.45077 -2.65905,-0.910559 -1.72495,2.787339 -1.5067,0.122538 -2.13674,-1.785956 2.30278,-1.45476 1.20699,-0.285643 -3.21233,-2.343516 -0.37803,-1.113744 -1.72495,-2.913077 0.64153,-2.435221 -0.12375,-1.995281 -0.61055,-2.100357 -1.1929,-0.487824 -0.72002,-1.207638 1.03156,-1.045679 -3.9528,-0.55077 -40.855256,0 2.540871,1.09094 1.021814,0.984371 0.96264,2.771897 -1.288277,-0.06011 -1.394791,1.033722 -0.439288,2.320652 0.501248,1.032341 1.139816,0.158356 0.03829,1.328525 -0.579742,-1.032103 -0.118872,1.170301 -0.667112,1.334614 0.06387,1.18717 1.142427,0.668515 -0.01149,1.611699 1.057668,0.861577 -1.021814,1.186202 0.0047,1.144614 1.024251,0.739174 -0.08319,0.389989 0,0 -0.584963,1.10664 1.110403,1.114575 0.650926,-2.501753 0.168475,1.008388 0.437199,1.028515 -0.555897,1.26918 -2.305043,1.304827 1.209782,1.170362 1.639323,0.477386 0.506469,1.395392 -0.126008,1.04951 -0.30684,-2.142664 -1.118757,-0.441884 -1.012764,1.385848 -1.169056,0.46329 -1.088299,-2.155264 -3.207985,0.07646 0.256541,1.075561 -1.151999,1.34877 0.07345,1.022225 -0.63474,2.180698 1.169056,5.069577 0.25219,2.481504 1.095087,0.660266 1.012764,0.01861 -0.287521,1.104579 1.126241,2.350229 -1.16923,4.521685 -0.527529,1.261074 -0.247143,1.980472 0.347045,1.108323 1.74e-4,1.552439 -1.093173,2.131426 0.104253,3.777938 2.549923,0.163844 0.297094,1.00426 -0.128271,1.587049 0.277775,1.402507 1.06724,0.505843 2.102804,5.523821 -0.430064,1.12044 1.487557,2.6883 1.007369,0.61608 0.432674,2.33124 0.570343,2.13169 0.313628,2.75525 1.962698,3.47247 -0.522655,1.08882 0.304229,1.01246 -0.480014,1.17573 1.102049,0.64656 0.04299,1.43775 0.670593,1.24252 -0.256716,2.34217 -0.399432,1.07258 0.166387,2.17341 -0.760574,5.38859 -0.384638,2.48948 0.270639,1.55517 1.088299,0.80368 1.164357,2.1911 -0.394385,1.02457 0.01897,2.33355 -0.708012,1.1442 -0.137843,2.41351 1.102571,1.14397 1.235888,5.84215 1.030865,1.00373 -0.270465,2.59119 0.532228,1.06837 0.104426,1.09279 1.005106,3.32001 0.187968,2.27984 -0.480014,1.00891 0.147067,1.13467 0.872137,1.15099 0.420491,1.16542 -0.684343,3.54542 0.109474,2.25699 0.2186,2.20928 0.0952,1.04497 0.551199,1.16333 -0.979,3.60831 1.028776,0.0389 0.615421,1.02002 0.413877,5.02565 0.708013,3.13374 -0.190231,3.9473 -0.413529,1.15407 0.09538,2.41113 0.346697,2.11643 -1.373906,7.36129 0.137843,1.40484 -0.415966,1.42542 -3.892154,2.72512 -1.458839,1.05305 -0.07345,1.22917 -0.651448,1.00111 -4.05123,2.28512 -1.492604,1.38507 -1.739225,0.39688 -4.93816,2.41787 -1.411151,0.55442 -1.060278,1.09288 -3.578352,1.8278 -1.173929,0.71015 L 56.180594,324 l 136.547706,0 0,0"
               style="fill:none;stroke:#000000;stroke-width:1.5;stroke-linecap:butt;stroke-linejoin:round;stroke-miterlimit:10;stroke-opacity:1;stroke-dasharray:none"
               id="path16691" />
            <path
               d="m 176.55053,312.49007 -0.88711,-1.41728 -2.72484,-1.18277 -1.03452,0.25207 -1.53507,-0.27267 -0.95689,-3.87175 -0.70332,-1.66772 0.0397,1.20444 0.41492,1.03124 0.15368,2.57113 0.62586,1.1639 1.22284,0.41222 -1.10884,0.53117 -3.25863,0.002 1.11197,0.0349 -1.23868,0.23143 1.32274,0.37098 1.3941,-0.57707 -2.15293,1.59479 -3.22696,-0.88453 -1.05349,-0.79425 -1.26112,-1.62206 -1.61113,-0.50585 -1.4162,0.47732 -1.42734,-0.37901 -0.79851,1.05454 -3.33295,-2.4391 -0.91896,-1.84178 -1.85983,-0.0603 -0.79051,-1.16308 -1.01399,-0.1397 -1.08029,0.8458 -4.5577,0.44744 -2.02779,-1.00439 -1.18977,0.18729 -1.69989,-0.23806 -0.88397,-1.03004 -3.20955,-0.47454 -2.2939,-1.93696 -1.04549,-0.0239 -2.00725,1.16544 -1.62679,-0.92721 -3.19546,-0.92108 -1.06132,-0.85772 -1.02025,-1.40927 0.79208,1.33933 -1.23885,0.27325 1.34971,0.87675 1.09944,0.16196 -2.33828,0.88767 -1.18646,-0.0508 -2.595,1.08752 -2.4998,1.82844 -0.57661,-1.23794 -0.37716,2.38196 -1.29732,0.96777 -0.79382,1.01202 -3.57383,1.69533 -1.12798,-0.0429 -1.3417,-0.57087 -1.27853,0.5582 -1.21344,-0.32344 -1.57006,-0.89285 -1.19916,0.7834 -1.127982,-0.31557 -1.835994,-0.89134 -1.134247,-1.7386 0.405524,-1.16306 -1.696759,-0.96011 -2.596393,-0.1238 -1.007543,0.32375 -2.691595,0.0397 -0.375414,-1.0729 -1.124848,-1.51306 0.847596,-1.01474 -1.65551,-1.25486 -1.446309,-0.51474 -0.841156,1.44081 -1.316645,1.50393 -2.24639,0.0111 -2.029183,-0.14924 -3.005224,1.50665 -1.402101,2.51379 -2.30017,-1.2964 -2.165634,0.32216 0.525962,0.0857 0,0 1.720429,-0.22853 2.447585,1.12191 0.977433,-2.22177 1.238848,-0.95249 1.216744,0.19369 1.230841,-0.93515 3.855952,0.45571 1.948427,-2.75701 1.314905,-0.0222 1.185067,0.96261 -0.719325,1.17834 2.973548,2.91447 5.9598,-0.0841 1.009109,2.79247 1.798052,1.10871 1.029646,1.1577 2.663054,-0.92139 1.13912,1.15605 1.26878,0.15539 1.4068,-0.71519 0.64797,1.01647 1.17863,-0.17759 1.44648,-1.01645 1.28305,1.16073 0.2837,-1.25111 1.0011,-0.55987 0.85386,-1.1991 3.04491,-2.23068 0.94889,-1.28236 1.24842,-0.78739 3.70697,-0.77311 1.37025,-0.52399 1.10431,-0.79875 1.91518,1.19256 1.09787,0 0.87928,1.00654 2.52991,-1.41465 1.58571,0.37632 0.92836,1.18278 1.72686,0.41108 1.11841,-0.13811 1.22284,0.773 0.44207,1.13625 1.5114,-0.22218 2.19714,0.13968 -1.05506,1.07413 -1.03434,-0.0888 -3.57714,3.4069 -0.1173,1.08143 -0.82219,1.33168 -1.56675,1.20472 -0.72245,2.38042 -2.91316,0.54044 -4.553,2.2738 -0.59105,1.24847 -1.80902,0.78104 -1.57632,1.14387 -3.07797,0.33586 -1.76499,-0.25511 -2.36352,-0.79214 -1.44474,0.60678 -1.02338,0.0602 -1.26739,0.67966 -4.3264,-0.55134 1.30377,0.40396 1.28636,0.48316 4.7589,-0.99803 2.60283,0.11883 2.54261,0.67487 1.56048,-0.0681 1.59686,-0.53232 1.07246,-0.91407 2.52678,-1.28649 2.21941,-1.28965 3.74352,-2.10586 1.38766,-0.23612 1.13912,-1.4453 0.44033,-1.28698 1.32448,-1.2348 0.59871,-1.29686 2.02935,-1.92032 1.60487,-2.06349 1.42734,-0.0793 1.04879,-0.65366 1.56518,0.56007 4.16157,-1.03765 1.65394,-0.15389 2.00238,0.41567 1.04566,1.81804 2.65505,1.5749 0.48959,1.10362 1.22614,-0.0459 1.28305,-0.58198 2.16407,-0.39168 1.494,0.71993 0.54963,1.04015 1.16749,0.68803 0.62255,1.04943 1.07421,-0.0571 1.29576,0.43911 1.57788,-0.36305 1.24529,-1.02082 1.43047,0.91307 1.62383,-0.4201 0.006,-1.83742 2.18304,-0.006 1.00441,0.84663 0.70958,1.49966 2.31774,0.84959 2.64565,0.56739 1.1849,0.88756 -0.6337,-1.12211 -4.40872,-0.98904 0,0"
               style="fill:none;stroke:#000000;stroke-width:1.5;stroke-linecap:butt;stroke-linejoin:round;stroke-miterlimit:10;stroke-opacity:1;stroke-dasharray:none"
               id="path16693" />
          </g>
        </g>
        <g
           id="g16695">
          <g
             id="g16697"
             clip-path="url(#clipPath16699)">
            <path
               d="m 56.180594,323.1028 1.003713,-0.0644 0.764229,-1.08522 1.306029,-0.82064 0.906771,-2.27193 4.117714,-2.92634 0.296398,-1.19658 1.049487,-1.00643 1.049314,-0.52458 0.262284,-1.0684 -0.188142,-1.31892 1.186287,-0.6868 2.1672,0.25041 1.556826,-0.31051 2.315486,1.07649 1.231886,0.45503 2.326799,-0.88173 1.271916,0.32529 1.265998,-0.15246 1.203343,-0.85921 1.231885,-0.20116 1.186287,-0.78663 -3.131058,-6.61991 1.19203,-0.46525 1.100656,0.3541 1.123456,-1.54179 0,0"
               style="fill:none;stroke:#000000;stroke-width:1.5;stroke-linecap:butt;stroke-linejoin:round;stroke-miterlimit:10;stroke-opacity:1;stroke-dasharray:none"
               id="path16703" />
            <path
               d="M 84.696017,322.71381 84.365159,323.10193 84.382389,324"
               style="fill:none;stroke:#000000;stroke-width:1.5;stroke-linecap:butt;stroke-linejoin:round;stroke-miterlimit:10;stroke-opacity:1;stroke-dasharray:none"
               id="path16705" />
            <path
               d="m 84.496388,299.18361 0.01706,0.0716 -0.262285,0.14749 0.03429,0.16061 -0.199629,0.16052 -0.273772,-0.11601 -0.07989,-0.27184 -0.182399,-0.0633 -0.119742,0.19369 -0.142717,0.008 -0.353484,0.31938 0.06266,0.34947 -0.148285,0.24605 -0.165343,-0.1714 -0.279515,0.19544 -0.205198,-0.002 -0.382201,-0.27615 -0.0912,0.20326 -0.108429,0.0476 -0.216685,-0.332 -0.09694,0.13525 -0.176829,0.0571 0.01149,0.27915 -0.182573,-0.0488 -0.159598,-0.29883 -0.467658,0.1557 -0.393514,-0.23685 0.02854,-0.26657 -0.205372,-0.0734 -0.0456,-0.21903 -0.461914,-0.55762 -0.136973,0.0554 -0.08546,0.19549 -0.09694,-0.2479 -0.382202,0.11433 -0.216685,-0.21295 -0.154029,0.0445 -0.148286,0.1955 -0.176829,-0.30198 -0.159599,0.19554 -0.336427,-0.0188 -0.02854,-0.28275 -0.182572,-0.0175 -0.136799,-0.13699 -0.193885,0.14489 -0.501944,-0.0446 -0.176829,-0.0606 -0.0684,-0.20818 -0.148286,0.0781 -0.38777,-0.14926 0.01706,0.10304 -0.07989,0.0367 -0.182399,-0.20343 -0.233915,0.20513 -0.113999,-0.11605 -0.364971,0.0903 -0.0912,-0.14442 -0.633173,-0.0843 -0.387771,-0.36054 -0.188142,-0.0445 -0.136972,-0.13663 -0.205199,0.0554 -0.06283,-0.24009 -0.336427,-0.29861 -0.205373,-0.0289 -0.47897,-0.34313 -0.347914,0.0223 -0.0912,-0.0271 -0.02297,-0.10479 -0.239485,-0.021 -0.148286,-0.51832 -0.393514,-0.15896 -0.05691,-0.2319 -0.268202,-0.0384 -0.262285,-0.25288 -0.182399,-0.0332"
               style="fill:none;stroke:#000000;stroke-width:1.5;stroke-linecap:butt;stroke-linejoin:round;stroke-miterlimit:10;stroke-opacity:1;stroke-dasharray:none"
               id="path16707" />
            <path
               d="m 84.696017,300.18369 0.307885,-0.29628 2.811686,15.4066 -0.0456,0.17237 0.159599,0.43612 0.199629,0.15059 0.108429,0.24548 -0.06283,0.59407 0.05709,0.37389 -0.336428,0.55139 0.0228,0.51178 -0.159773,0.0365 -0.0684,0.16319 -0.307885,0.19801 -0.01723,0.30418 -0.222429,0.19669 0.04577,0.16318 -0.296571,0.32467 -0.0228,0.13315 0.262285,0.51956 -0.136799,0.21235 -0.06283,0.46733 -0.125486,0.13619 -0.661543,0.23628 -0.222428,0.285 -0.268029,0.15839 -0.113999,0.22365 -0.433544,0.14707 -0.410571,0.47867"
               style="fill:none;stroke:#000000;stroke-width:1.5;stroke-linecap:butt;stroke-linejoin:round;stroke-miterlimit:10;stroke-opacity:1;stroke-dasharray:none"
               id="path16709" />
            <path
               d="m 69.833849,295.44831 -0.01723,-0.003 -0.0912,-0.30536 -0.410571,-0.0524 -0.250972,0.0712 -0.136973,-0.17953 -0.450426,-0.0463 -0.0456,-0.19706 -0.239659,-0.008 -0.131055,-0.17999 0.136798,-0.135 -0.0057,-0.32157 0.06857,-0.0874 -0.467657,-1.20928 0.125486,-0.42007 -0.114173,-0.32307 0.0057,-0.32004 -0.479144,-0.7946 -0.290828,-0.38226 -0.171086,-0.0713 -0.07414,-0.68028 -0.245228,-0.35216 -0.0228,-0.6914 0.125486,-0.22456 0.165342,-1.14776 -0.07414,-0.21022 -0.342171,-0.44803 -0.855428,-0.31748 -0.866915,-0.71752 -0.439114,-0.18844 -0.193885,-0.24712 -0.336428,-0.17566 -0.07414,-0.20864 -0.308058,-0.20769 -0.142542,-0.90653 -0.205373,-0.39723 0.222429,-0.23021 0.07414,-0.28422 0.205372,-0.15175 0.09694,-0.48206 -0.193886,-0.15968 -0.593143,-0.0114 -0.296571,-0.22023 -0.45617,0.16759 0.256541,-0.63266 -0.113999,-0.12467 -0.03986,-0.26683 -0.273772,-0.0255 -0.04003,-0.11016 0.804259,-0.71294 0.205198,-0.31174 0.752916,-0.32935 0.03411,-0.30387 -0.108255,-0.21263 -0.125486,-0.0685 -0.279515,0.0527 0.07414,-0.41909 0.08563,-0.11379 0.638743,-0.32294 0.01706,-0.17142 0.279516,-0.43197 -0.0057,-0.46731 0.285085,-0.3552 0.06283,-0.48506 0.382027,-0.29775 0.245229,-0.077 0.154029,-0.20674 0.290828,-0.10865 0.0057,-0.75947 0.165342,-0.0787 0.233916,-0.31864 0.592969,-0.199 0.610374,-1.08975 0.342171,-0.1863 0.222428,-0.29997 0.0912,-0.50004 -0.102687,-0.42216 -0.09694,-0.10753 -0.216685,-0.0547 -0.01706,-0.2887 -0.342345,-0.13313 -0.250798,-0.47043 -0.325115,-0.23464 -0.113999,-0.23726 2.708826,-0.034 0.370715,-0.183 0.142542,0.0467 0.250972,-0.0723 0.353658,-0.21041 0.752742,0.0111 0.205372,-0.0627 0.176829,-0.21176 0.165342,0.006 0.05134,-0.44169 0.256542,-0.30849 -0.108256,-0.50327 0.519,-0.31652 0.165342,-0.47125 -0.131229,-0.25702 0.03429,-0.2704 -0.0912,-0.1511"
               style="fill:none;stroke:#000000;stroke-width:1.5;stroke-linecap:butt;stroke-linejoin:round;stroke-miterlimit:10;stroke-opacity:1;stroke-dasharray:none"
               id="path16711" />
            <path
               d="m 76.916932,266.67738 0.142716,0.15596 0.227998,-0.13519 0.268028,0.2125 0.387945,0.13165 0.273772,0.4408 0.279341,0.0773 0.205372,0.15765 0.279342,0.0318 0.205372,0.31835 0.336428,0.26051 0.142716,0.25866 0.439114,0.2379 0.325115,0.35656 0.461913,0.25546 0.422058,0.45967 0.439114,0.0785 -0.114173,-0.16541 -0.01131,-0.21703 -0.136973,-0.0383 0.0228,-0.0803 -0.108256,-0.0869 0.0456,-0.21978 -0.256716,0.0305 0.102686,-0.14601 0.01149,-0.2282 0.290828,-0.27011 0.0684,-0.28918 -0.159599,-0.31827 -0.211116,-0.004 -0.182398,-0.30207 -0.0057,-0.96338"
               style="fill:none;stroke:#000000;stroke-width:1.5;stroke-linecap:butt;stroke-linejoin:round;stroke-miterlimit:10;stroke-opacity:1;stroke-dasharray:none"
               id="path16713" />
            <path
               d="m 103.10556,266.67738 0.0684,0.0531 0.63874,0.28141 0.0799,0.20447 0.84411,0.14929 0.31937,-0.0481 0.44486,0.27647 0.70714,0.0627 0.34792,0.20926 0.21094,0.0208 0.12548,-0.0755 0.15403,0.16694 0.25654,-0.18324 0.75849,0.2477 0.22817,-0.13161 0.22243,0.1766 0.11974,-0.1638 0.11974,0.30508 0.10269,-0.20706 0.33086,0.1011 0.0113,-0.25696 0.21686,0.0367 0.30214,-0.25876 0.24523,-0.0194 0.0914,0.22825 0.2052,0.0742 0.0343,0.24764 0.114,0.12847 0.33086,0.21855 0.25079,-0.0627 0.28526,-0.43572 0.0113,-0.1748 0.22242,-0.26058 -0.21668,-0.6612 0.0115,-0.24918"
               style="fill:none;stroke:#000000;stroke-width:1.5;stroke-linecap:butt;stroke-linejoin:round;stroke-miterlimit:10;stroke-opacity:1;stroke-dasharray:none"
               id="path16715" />
            <path
               d="m 72.240534,266.67738 -0.01149,-0.0226 4.665084,0 0.0228,0.0226"
               style="fill:none;stroke:#000000;stroke-width:1.5;stroke-linecap:butt;stroke-linejoin:round;stroke-miterlimit:10;stroke-opacity:1;stroke-dasharray:none"
               id="path16717" />
            <path
               d="m 81.108789,266.67738 -0.01706,-5.85374 0.5646,0.44733 0.581656,-0.58094 0.581656,-0.21501 0.998145,0.22778 0.878227,0.46013"
               style="fill:none;stroke:#000000;stroke-width:1.5;stroke-linecap:butt;stroke-linejoin:round;stroke-miterlimit:10;stroke-opacity:1;stroke-dasharray:none"
               id="path16719" />
            <path
               d="m 97.807473,262.66617 0.153855,0.48165 0.233916,0.16768 0.119742,0.27733 0.193886,0.17574 0.650229,0.26854 0.233742,0.25343 0.02854,0.16695 0.484714,0.0759 0.05134,0.28524 0.541793,0.0597 0.30232,-0.084 0.21668,0.23997 0.30232,0.0516 1.10065,1.07198 0.68435,0.51952"
               style="fill:none;stroke:#000000;stroke-width:1.5;stroke-linecap:butt;stroke-linejoin:round;stroke-miterlimit:10;stroke-opacity:1;stroke-dasharray:none"
               id="path16721" />
            <path
               d="m 111.30096,266.67738 0.006,-0.19109 0.17126,-0.39331 0.0912,-0.62402 -0.14828,-0.49434 -0.38777,-0.37505 -0.0969,-0.45401 -0.27952,-0.24185 0.10843,-0.50929 -0.0458,-0.33828 0.32511,-0.31917 -0.16534,-0.69189 0.47897,-0.32751 0.0343,-0.47274 0.11399,-0.20972 -0.0456,-0.15336 -0.19962,-0.16441 0.0456,-0.4469 -0.26803,-0.17321 -0.10826,-0.17437 0.0399,-0.20811 0.18257,-0.13547 -0.17683,-0.1471 -0.006,-0.10355 0.10843,-0.25352 0.27377,-0.12798 -0.14829,-0.2827 0.22243,-0.65399 0.46766,-0.099 0.0741,-0.12456 -0.0343,-0.30267 0.31362,-0.16652 -0.14254,-0.0967 0.0343,-0.16189 -0.11992,-0.32204 0.0513,-0.18931 0.29101,-0.19222 0.1596,0.4852 0.0628,-0.0565 -0.023,-0.21085 0.28526,-0.074 0.1368,-0.39848 -0.006,-0.30245 0.23374,-0.19987"
               style="fill:none;stroke:#000000;stroke-width:1.5;stroke-linecap:butt;stroke-linejoin:round;stroke-miterlimit:10;stroke-opacity:1;stroke-dasharray:none"
               id="path16723" />
            <path
               d="m 113.21144,255.50075 -0.0969,-0.26876 0.0969,-0.14865"
               style="fill:none;stroke:#000000;stroke-width:1.5;stroke-linecap:butt;stroke-linejoin:round;stroke-miterlimit:10;stroke-opacity:1;stroke-dasharray:none"
               id="path16725" />
            <path
               d="m 84.696017,261.16293 0.405001,0.21085 0.268029,-0.0819 0.575912,0.0308 0.285259,-0.24396 1.596857,0.10051 0.319371,0.12254 0.5646,-0.16207 1.323085,-0.072 0.450601,-0.1952 0.484713,-0.0842 0.290828,-0.005 0.13123,0.10807 0.227998,0.0308 0.193885,-0.0906 -0.165342,-0.3324 -0.01706,-0.34869 0.148286,-0.0901 0.325114,0.0337 0.695656,0.16913 0.353658,0.29697 0.570343,0.0581 0.148286,0.21149 0.302141,0.007 0.325114,0.15628 0.319372,0.44552 0.07414,0.25145 0.484713,0.55624 0.05709,0.22928 0.319371,0.28034 0.296572,0.10852 0.92957,0.001 0.570344,-0.3192 0.245228,0.1033"
               style="fill:none;stroke:#000000;stroke-width:1.5;stroke-linecap:butt;stroke-linejoin:round;stroke-miterlimit:10;stroke-opacity:1;stroke-dasharray:none"
               id="path16727" />
            <path
               d="m 87.159789,261.16115 3.667114,-6.08422 1.425771,-2.93431 -0.07989,-0.0228 0.0228,-0.16241 -0.171086,-0.19632 -0.376458,-0.3103 0,-0.16074 0.273772,-0.10989 -0.136799,-0.29579 -0.513257,-0.10585 -0.02297,-0.097 -0.176655,-0.0555 -0.06857,-0.25499 -0.142542,0.0181 -0.142543,-0.30238 -0.171085,-0.072 -0.0057,-0.77938 0.102686,-0.40687 -0.0912,-0.6787 0.0912,-0.3884 -0.02854,-1.55232 -0.09694,-0.31091 -0.210941,-0.19772 0.0056,-0.22649 -0.342171,-0.0176 -0.07414,-0.0898 0.102686,-0.25883 0.382202,-0.3147 -0.06857,-0.29242 0.19406,-0.37005 0.0228,-0.55522 0.461914,-0.42434 0.245229,-0.97149 -0.832629,-0.26007 -0.0456,-0.53144 0.142542,-0.13594 0.0057,-0.13246 -1.009458,-0.74266 0.0056,-0.41418 -0.410571,-0.005 -0.113999,-0.45852 0.03986,-0.4487 -0.136798,-0.14564 -0.427801,-0.13922 -0.142543,-0.14094 0.0912,-0.5458 -0.176829,-0.27027 -0.0056,-0.1724 0.176655,-0.1771"
               style="fill:none;stroke:#000000;stroke-width:1.5;stroke-linecap:butt;stroke-linejoin:round;stroke-miterlimit:10;stroke-opacity:1;stroke-dasharray:none"
               id="path16729" />
            <path
               d="m 113.21144,255.59867 0.0285,-0.0233 -0.0285,-0.0746"
               style="fill:none;stroke:#000000;stroke-width:1.5;stroke-linecap:butt;stroke-linejoin:round;stroke-miterlimit:10;stroke-opacity:1;stroke-dasharray:none"
               id="path16731" />
            <path
               d="m 113.21144,255.08334 0.0456,-0.0735 1.02651,-0.11308 0.39926,-0.51383 0.0343,-0.21816 0.10825,0.0204 0.14829,0.28875 0.0456,-0.37567 0.2682,-0.21122 0.53031,-0.12955 0.13123,-0.11144 0.19963,0.0373 0.0912,-0.27429 -0.15403,-0.50145 0.27377,-0.17164 0.30789,-0.37319 0.53049,-0.0357 0.114,-0.20153 0.34217,0.15656 0.25671,-0.0584 0.12549,-0.23247 0.17683,0.17877 0.0854,-0.11218 0.33643,0.0228 0.19389,-0.17173 0.27377,0.0713 0.18831,-0.13439 0.19963,0.12619 0.19946,0.32949 0.37646,0.0712 0.68434,-0.0532 0.22243,-0.18401 0.37071,-0.12965 0.13123,-0.15249 0.42763,-0.0906 0.0686,-0.23374 0.27377,-0.2893 0.2964,-0.10873 0.18832,-0.18063 0.51325,-0.006 0.59315,0.39923 0.35348,-0.0812 0.0799,-0.31509 0.0856,-0.0713 -0.0343,-0.15724 0.21094,-0.22749 0.0971,-0.31056 0.28508,-0.15442 0.12549,0.0538 0.34791,-0.53006 0.17666,-0.021 0.0914,-0.19664 0.22243,-0.18031 0.0741,0.12646 0.45043,0.13168 0.24523,-0.1996 0,-0.19373 0.53048,-0.20023 0.43912,-0.005 0.29083,-0.356 0.21668,-0.0943 0.61594,0.0129 0.30806,0.13819 0.26803,-0.12179 0.0912,0.1347 0.0969,-0.18859 0.17683,-0.0146 0.0115,-0.63505 0.31937,-0.20918 0.2508,-0.34873 0.77571,-0.56341 0.228,-0.54252 1.36886,0.21996 0.114,-0.13197 0.46191,-0.13901 0.57035,0.16774 0.31362,0.21703 0.52475,-0.24281 0.27951,0.0862 0.2052,-0.0733 0.24523,0.24339 0.21686,-0.017 0.114,0.0886 0.114,-0.0798 0.0285,-0.33079 0.33086,-0.0147 0.10825,-0.2165 0.92958,-0.56279 0.31937,-0.0311 0.0686,-0.14031 0.29083,-0.18081 0.44486,-0.0605 0.14828,-0.17144 0.57591,-0.17087 0.0513,-0.36065 0.30806,-0.45183 -0.0285,-0.12281 0.16534,-0.10577 -0.19962,-0.44264 -0.26229,-0.22874 -0.0969,-0.45283 0.17683,-0.27239 0.0113,-0.43839 0.31937,-0.37435 0.0115,-0.28969 0.25654,-0.43637 0.04,-0.23919 -0.04,-0.12253 -0.13106,-0.0283 0.0912,-0.19565 -0.0171,-0.1803 -0.28526,-0.36373 -0.15403,-0.84506 0.18832,-1.07236"
               style="fill:none;stroke:#000000;stroke-width:1.5;stroke-linecap:butt;stroke-linejoin:round;stroke-miterlimit:10;stroke-opacity:1;stroke-dasharray:none"
               id="path16733" />
            <path
               d="m 84.696017,217.99325 -0.245228,-0.0174 -0.593143,-0.31177 -1.157743,0.0336 -0.313628,-0.17423"
               style="fill:none;stroke:#000000;stroke-width:1.5;stroke-linecap:butt;stroke-linejoin:round;stroke-miterlimit:10;stroke-opacity:1;stroke-dasharray:none"
               id="path16735" />
            <path
               d="m 87.54756,222.57534 0.05134,-0.74776 0.769972,-0.69017 0.182398,-0.35398 0.01706,-0.52303 0.125486,-0.48614 0.131229,-0.0516 0.09694,0.15352 0.131229,-0.19844 0.553113,-0.22968 0.364971,0.0348 0,-0.33471 -0.330684,-0.24179 -0.09694,-0.22687 0.353484,-0.46644 0.01149,-0.31527 0.136799,-0.2253 -0.07971,-0.39719 0.296571,-0.52781 -0.03429,-1.00104 0.210942,-0.36302 -0.0456,-0.23541 0.387771,-0.8423 -0.262285,-0.37798 0.188142,-0.18274 0.273772,-0.55137 0.439114,-0.1744 0.410745,-0.45637 0.370714,-0.21132 0.165342,-0.40592 0.615943,-0.29067 0.615943,-0.62271 -0.01149,-0.0937 -0.227998,-0.0236 -0.844115,-1.26971 -0.313628,-0.27074 -0.09137,-0.19024 0.576086,-0.55208 0.319372,-0.11462 -0.02854,-0.24071 0.136972,-0.22077 -0.182572,-0.33067 -0.03429,-0.17659"
               style="fill:none;stroke:#000000;stroke-width:1.5;stroke-linecap:butt;stroke-linejoin:round;stroke-miterlimit:10;stroke-opacity:1;stroke-dasharray:none"
               id="path16737" />
            <path
               d="m 88.397244,237.45944 0.06857,-0.0673 0.347741,-0.58883 0.456344,-0.28064 0.342171,-0.39415 0.0057,-0.12121 -0.09694,-0.10225 -0.222428,0.0266 -0.13123,-0.28083 -0.296571,-0.12298 -0.108256,-0.21233 0.06266,-0.24428 -0.290828,-0.15617 -0.07414,-0.35862 -0.467657,-0.75183 1.197599,-3.21623 0.444857,-0.37474 0.313628,-0.0463 0.182573,0.14193 0.256541,-0.0647 0.211116,0.0535 0.359227,-0.37484 0.347915,-0.13725 0.102686,-0.26205 -0.958114,-0.47556 -0.245228,-0.31694 -0.0228,-0.77338 0.176829,-0.29939 -0.496201,-0.3215 -0.41057,-0.0786 -0.222429,-0.50981 -0.650229,-0.70382 -0.142543,-0.34758 -0.382201,-0.22663 0.136973,-0.11631 -0.0057,-0.0895 -0.330858,-0.28517 -0.153855,0.0435 -0.655973,-0.52099 -0.188142,-0.0465 0.0057,-0.21732 -0.176829,-0.37625 0.342171,-0.0317 0.513257,-0.49944 0.0057,-0.75563 -1.049314,-0.94707 -0.747172,0.0683 -0.125486,-0.20111 -0.07414,-0.40951 0.216685,-0.28092 0.0228,-0.559 0.222429,-0.35185 -0.410571,-1.05264 -0.838371,-0.84404 -0.0684,-0.004"
               style="fill:none;stroke:#000000;stroke-width:1.5;stroke-linecap:butt;stroke-linejoin:round;stroke-miterlimit:10;stroke-opacity:1;stroke-dasharray:none"
               id="path16739" />
            <path
               d="m 139.44567,237.45944 0.0912,-0.54806 -1.06654,-0.0278 1.962,-2.25316 0.38203,-4.65142 0.91251,-0.0368"
               style="fill:none;stroke:#000000;stroke-width:1.5;stroke-linecap:butt;stroke-linejoin:round;stroke-miterlimit:10;stroke-opacity:1;stroke-dasharray:none"
               id="path16741" />
            <path
               d="m 130.99372,207.5488 0.7926,2.15209 6.44452,1.12512 3.49602,0.96607"
               style="fill:none;stroke:#000000;stroke-width:1.5;stroke-linecap:butt;stroke-linejoin:round;stroke-miterlimit:10;stroke-opacity:1;stroke-dasharray:none"
               id="path16743" />
            <path
               d="m 141.72686,229.94219 8.874,-0.36067 0.18814,0.0761 0.13698,0.24126 0.33643,-0.0155 0.0228,-0.69478 -0.1824,-0.261 0.0513,-0.38954 -0.66172,-0.76756 -0.0855,-0.36017 0.12548,-0.8285 -0.0456,-0.39452 0.21669,-0.6129 0.1596,-1.46328 0.15403,-0.17738 0.43911,-0.12664 0.51326,-0.34354 0.86691,-0.12902 0.88397,-0.51645 0.89546,-0.7811 -0.14828,-0.0981 -0.0571,-0.2244 0.0969,-0.23102 0.26803,-0.25925 -0.0513,-0.25809 0.22817,-0.27071 -0.0285,-0.13182 -0.18815,-0.018 1.1292,-2.15248 0.35923,-0.008 0.0115,-0.19877 -0.54755,-0.008 -1.25468,-4.03409 0.30231,-0.0187 0.0799,-0.81783 -0.41074,0.0139 -1.96758,-4.19545 1.56275,-1.44861 -0.13123,-0.12807"
               style="fill:none;stroke:#000000;stroke-width:1.5;stroke-linecap:butt;stroke-linejoin:round;stroke-miterlimit:10;stroke-opacity:1;stroke-dasharray:none"
               id="path16745" />
            <path
               d="m 141.72686,211.79208 0.0514,0.0145 5.1042,-0.31607 5.38945,-2.89843 -0.0399,-0.53604 0.15385,-0.5024 0,-0.005"
               style="fill:none;stroke:#000000;stroke-width:1.5;stroke-linecap:butt;stroke-linejoin:round;stroke-miterlimit:10;stroke-opacity:1;stroke-dasharray:none"
               id="path16747" />
            <path
               d="m 92.896986,207.5488 -0.0684,-0.34905 -0.319372,0.0286 -0.781285,-0.16519 -0.102686,-0.10809 0.08563,-0.22413 0.342171,-0.0881 -0.09137,-0.49767 0.330858,-0.58795 -0.467657,-0.2092 -0.03986,-0.27256 0.364971,-0.58802 0.792772,-0.37026 0.496026,-0.39296 -0.01131,-0.12006 -0.325114,-0.21638 -0.222429,-0.2817 0.02854,-0.9829 0.239485,-0.25945 0.553287,-0.0324 1.323085,-2.18685 0,-1.89836 0.319371,-0.42088 0.171086,-0.47696 0.102686,-1.31499 0.632999,-0.56845 0.165343,-0.26342 -0.125486,-0.37122 0.176829,-0.24636 0.07989,-0.4005 -0.148286,-0.41112 0.347915,-0.60755 0.0228,-0.41533 0.199629,-0.30378 -0.205373,-1.01023 0.0456,-0.71316 0.211116,-0.10146 0.08546,0.0445 0.176829,-0.25309 1.220399,-0.1424 2.252835,0.49142 1.04357,-1.12067 -0.85543,-2.41487 -1.05506,-3.92286 -5.224114,-2.34302 -0.319372,-0.60203 -0.330684,0.0207 -0.131229,-0.0777 -0.313628,-0.78258 -0.06266,-0.0138 -0.06283,0.17441 -0.125486,-0.0107 -0.439114,-1.07959 -0.03986,-0.22867 0.119742,-0.34378 0.302315,-0.19175 0.227998,-0.0314 -0.02854,-0.19934 0.205372,-0.23084 0.0057,-0.19191"
               style="fill:none;stroke:#000000;stroke-width:1.5;stroke-linecap:butt;stroke-linejoin:round;stroke-miterlimit:10;stroke-opacity:1;stroke-dasharray:none"
               id="path16749" />
            <path
               d="m 100.76727,190.268 0.3366,0.63398 0.633,0.46544 -0.0628,0.73444 0.34217,0.009 0.21112,0.27222 0.86117,0.31779 -0.0285,0.28562 0.10268,0.1548 0.14255,0.78895 0.27377,0.19345 0.34791,-0.10598 0.0684,0.13121 1.40297,0.41935 0.29083,0.28562 0.14829,-0.0308 0.0626,0.64108 0.28526,1.17266 0.21094,-0.006 0.66729,-0.26906 0.21111,-0.24949 0,-0.26983 0.6558,-0.10206 0.64449,-0.84942 0.37071,-0.24808 0.84969,0.072 0.114,0.0923 0.63317,-0.08 2.66897,0.0418"
               style="fill:none;stroke:#000000;stroke-width:1.5;stroke-linecap:butt;stroke-linejoin:round;stroke-miterlimit:10;stroke-opacity:1;stroke-dasharray:none"
               id="path16751" />
            <path
               d="m 113.21144,194.76918 0.0684,6.1e-4 0.43354,-0.2019 0.47323,-0.0529 0.60463,-0.30109 0.29083,0.0714 0.43911,-0.2593 0.31937,-0.39742 -0.15402,-0.52406 0.21668,-0.16093 -0.006,-0.29119 0.55886,-0.69811 -0.12549,-0.62145 0.29083,-0.42155 0.23966,-0.14964 0.0797,-0.76469 0.11974,-0.0569 0.23966,0.70283 0.006,0.68377 0.13697,0.207 0.0341,0.32117 0.16551,0.31742 0.54737,0.63068 0.0628,0.41506 0.23949,0.54247 0.17108,0.11828 0.0969,0.34496 0.15977,0.22415 0.0341,0.30106 0.19963,0.17665 0.0969,0.39987 1.18629,-0.0117 0.18257,-0.22088 0.0855,0.21844 5.00168,0.04 0.114,-0.77662 0.1368,-0.1964 0.50195,-0.22228 0.10268,-0.2711 0.19963,-0.0887 -0.0228,-0.33342 0.51326,-0.22069 0.14254,-0.2319 0.30231,-0.0185 -0.006,-0.13384 0.35366,-0.31717 0.61594,-0.17153 0.0569,-0.19134 0.19389,-0.10683 0.0513,-0.27788 -0.11974,-0.18841 0.22817,-0.15446 0.16535,-0.004 -0.0399,-0.2404 0.11974,-0.12365 -0.0741,-0.13352 0.91251,-1.12283 0.19963,-0.68806 0.41632,-0.39726 0.35348,-0.12273 0.29083,-0.35596 0.14828,-0.0192 -0.006,-0.10671 0.2052,-0.12713 0.04,-0.36427 0.37629,-0.26944 0.24523,0.0335 0.18257,-0.0764 0.24523,-0.30675 0.22242,-0.009 -0.0571,-0.17271 0.17108,-0.25354 0.23392,-0.0137 0.32511,-0.25418 0.17109,0.0174 0.42188,-0.21944 0.0742,-0.17788 0.30231,-0.21585 0.26803,-0.0137 0.37646,-0.30426 0.0571,-0.27887 -0.0571,-0.11396 0.47897,-0.57057 0.11417,-0.32595 0.519,-0.0792 0.41057,-0.3155 0.7014,0.006 0.23392,-0.18711 0.40482,0.0536 0.23392,-0.35372 0.18814,0.0362 0.47914,-0.27399 0.46192,-0.008 0.50751,-0.29343 0.70157,-0.0263 0.71289,0.1998 0.21668,-0.14482"
               style="fill:none;stroke:#000000;stroke-width:1.5;stroke-linecap:butt;stroke-linejoin:round;stroke-miterlimit:10;stroke-opacity:1;stroke-dasharray:none"
               id="path16753" />
            <path
               d="m 126.67064,193.8578 2.17294,7.25458 -0.0571,3.0182 2.03041,2.93256 0.17682,0.48566"
               style="fill:none;stroke:#000000;stroke-width:1.5;stroke-linecap:butt;stroke-linejoin:round;stroke-miterlimit:10;stroke-opacity:1;stroke-dasharray:none"
               id="path16755" />
            <path
               d="m 153.86872,207.5488 -0.19963,-0.19727 -0.33643,0.005 -0.0969,-0.15298 -0.25672,-0.0795 -0.0912,-0.19736 -0.35366,-0.26784 -0.30789,-0.13368"
               style="fill:none;stroke:#000000;stroke-width:1.5;stroke-linecap:butt;stroke-linejoin:round;stroke-miterlimit:10;stroke-opacity:1;stroke-dasharray:none"
               id="path16757" />
            <path
               d="m 161.75032,194.80426 0.53048,0.11264 0.21669,-0.58976 0.86691,-0.68133 0.23375,-0.0684 0.25097,0.0684 0.17683,-0.12823 0.26228,0.1011 0.19963,-0.0672 0.114,0.0956 0.3138,-0.17442 0.42763,0.11277 0.64448,-0.68996 0.12549,-0.9739 0.19389,-0.23471 0.46191,-0.26438 0.006,-0.60641 -0.23374,-0.4911 0.15386,-0.76504 -0.0399,-0.35801 0.23374,-0.32161 -0.006,-0.47861 0.29083,-0.16741 -0.0171,-0.27238 0.10252,-0.30656 -0.15386,-0.47742 0.2736,-0.4081 -0.19389,-0.49354 0.10269,-0.42098 -0.0228,-0.44115 0.45634,-0.612 0.12532,-1.44944 0.0856,-0.19468 0.29082,-0.16419 0.94106,-0.18229 0.22243,0.0243 0.28508,0.17857 0.39352,-0.0412 0.17683,0.0555"
               style="fill:none;stroke:#000000;stroke-width:1.5;stroke-linecap:butt;stroke-linejoin:round;stroke-miterlimit:10;stroke-opacity:1;stroke-dasharray:none"
               id="path16759" />
            <path
               d="m 141.72686,182.73287 2.95998,-1.97382"
               style="fill:none;stroke:#000000;stroke-width:1.5;stroke-linecap:butt;stroke-linejoin:round;stroke-miterlimit:10;stroke-opacity:1;stroke-dasharray:none"
               id="path16761" />
            <path
               d="m 143.79138,181.38483 0.12548,-0.2365 0.84412,-0.43437 0.74125,-0.83053 0.4506,-0.19429 0.78703,-0.52982 0.27952,0 1.56257,-1.14747 0.42206,-0.009 0.31362,-0.21235 0.74143,-0.0616 0.47915,-0.1427 0.66711,-0.89992 0.19963,0.0352 0.46765,0.33338 0.44486,-0.38436"
               style="fill:none;stroke:#000000;stroke-width:1.5;stroke-linecap:butt;stroke-linejoin:round;stroke-miterlimit:10;stroke-opacity:1;stroke-dasharray:none"
               id="path16763" />
            <path
               d="m 152.38586,207.5488 -0.0284,-0.68971 -0.13697,-0.41003 0.19963,-0.0711 0.0343,-0.093 -0.21112,-0.12459 -0.0171,-0.15865 0.0912,-0.15566 0.14254,0.1064 0.11418,-0.0523 0.0684,-0.60634 0.5418,-0.42409 -0.10269,-0.45359 0.0799,-0.66151 0.13123,-0.20291 -0.04,-0.32859 0.0856,-0.0189 0.13105,0.24935 0.11974,0.0305 0.35941,-0.43161 -0.49046,-0.33612 0.35348,-0.11832 0.13698,-0.15255 -0.35941,-0.42236 0.23966,-0.10015 0.15386,-0.22228 0.12548,0.10017 0.0856,-0.17099 -0.24522,-0.51259 0.11974,-0.19864 -0.0228,-0.7185 -0.38777,-0.49686 0.33068,-0.30363 -0.59314,-1.06541 0.25671,-0.44637 -0.14828,-0.14474 -0.006,-0.21287 0.25098,-0.29211 -0.27952,-0.38982 0.0571,-0.30891 -0.15403,-0.30411 0.19963,-0.26059 -0.34792,-0.78277 0.0115,-0.41351"
               style="fill:none;stroke:#000000;stroke-width:1.5;stroke-linecap:butt;stroke-linejoin:round;stroke-miterlimit:10;stroke-opacity:1;stroke-dasharray:none"
               id="path16765" />
            <path
               d="m 161.76755,194.82271 -0.3366,-0.36257 -0.10252,-0.30295 -0.12548,-0.01 -0.15403,-0.20515 -0.18257,-0.0585 0.0115,-0.18856 -0.37071,0.3118 -0.13123,-0.2637 -0.0969,0.11828 -0.19389,-0.0893 -0.13105,0.0376 -0.023,-0.17438 -0.14828,-0.14178 -0.23949,0.082 -0.0341,0.28228 -0.13123,-0.15035 -0.13123,0.0856 -0.1368,-0.048 -0.006,0.14173 -0.0969,-0.061 -0.46765,0.11643 -0.26229,-0.0893 -0.0684,0.0598 0.0399,0.10472 -0.28526,0.0598 -0.17109,-0.0684 -0.13679,0.1774 -0.21095,-0.17063 -0.20537,-0.002 -0.14254,0.10471 -0.11974,-0.12196 -0.21112,0.0616 -0.0456,-0.0703 -0.18257,0.16632 -0.31937,0.077 -0.228,-0.0634 -0.29657,0.16079 -0.0456,-0.0838 -0.20537,-0.0357 -0.13123,0.0819 -0.18815,0.44145 -0.17682,-0.072 -0.27935,0.072 -0.19962,-0.0634 0.006,-0.13546 -0.23375,0.0333 -0.11974,-0.12871 -0.11974,0.13669 -0.21669,-0.0474 -0.25671,0.085 -0.15403,0.221 -0.14254,-0.0517"
               style="fill:none;stroke:#000000;stroke-width:1.5;stroke-linecap:butt;stroke-linejoin:round;stroke-miterlimit:10;stroke-opacity:1;stroke-dasharray:none"
               id="path16767" />
            <path
               d="m 170.24229,183.02876 0.4734,0.14733 0.22243,0.27017 0.62151,0.34621 0.61037,0.17145 0.19389,0.19763 1.19185,-0.63728 0.33661,-0.48051 0.66711,-0.43143 -0.34774,-0.26421 -0.19406,-0.30868 0.10843,-0.58332 0.30231,-0.29714 0.0969,-0.43121 -0.46766,-0.87188 0.0969,-0.80828 -0.25671,-0.81596 -0.21095,-0.33167 -0.30231,-1.22921"
               style="fill:none;stroke:#000000;stroke-width:1.5;stroke-linecap:butt;stroke-linejoin:round;stroke-miterlimit:10;stroke-opacity:1;stroke-dasharray:none"
               id="path16769" />
            <path
               d="m 84.696017,149.33956 -0.113999,-0.0699 -0.06283,-0.17067 0,-0.45793 0.176829,-0.51981"
               style="fill:none;stroke:#000000;stroke-width:1.5;stroke-linecap:butt;stroke-linejoin:round;stroke-miterlimit:10;stroke-opacity:1;stroke-dasharray:none"
               id="path16771" />
            <path
               d="m 93.672702,176.67077 0.01131,-0.21146 0.410744,-0.52641 -0.03429,-0.0982 -0.353658,-0.12541 -0.256542,0.0769 -0.211116,-0.23122 -0.541626,-1.67936 0.01131,-0.39232 0.296572,-0.3906 -0.03986,-0.6287 0.307884,-0.41643 0.558856,-2.68659 -0.119742,-0.20144 -0.826885,-0.71662 -0.114173,-1.30403 0.245403,-0.50424 0.598712,-0.7146 0.798516,-1.24782 0.05134,-0.15091 -0.176829,-0.4607 0.01131,-0.35013 -1.06637,-0.20941 -0.245228,-0.19407 -0.205373,-0.41531 -0.273772,0.0949 -0.382027,0.30439 -0.456344,0.016 -0.193885,-0.0993 -0.376458,-0.70774 0.06283,-0.367 -0.222429,-0.50456 -0.193885,-0.32501 -0.387771,-0.26734 -0.03429,-0.46805 -0.405001,-0.73419 0.102686,-0.34195 -0.256541,-0.18037 -0.250972,-1.13425 -0.176829,-0.40665 -0.650056,-0.21763 0.03411,-0.20611 -0.182399,-0.17965 -0.07989,-0.32318 -0.285259,-0.36672 -0.0912,-0.27822 -0.399258,0.11326 -0.06266,-0.34561 -0.245228,-0.43652 -0.712886,-0.5638 -0.06266,-1.12578 -0.216859,-0.13379 -0.233741,-0.43726 -0.0057,-0.38098 0.13123,-0.54712 -0.410745,-0.96259 0.0057,-0.96207 -0.262284,-0.23239 -0.387771,-0.047 -0.0228,-0.17433 -0.382201,-0.2633 0.06283,-0.24635 -0.182573,-0.11376"
               style="fill:none;stroke:#000000;stroke-width:1.5;stroke-linecap:butt;stroke-linejoin:round;stroke-miterlimit:10;stroke-opacity:1;stroke-dasharray:none"
               id="path16773" />
            <path
               d="m 84.696017,148.12122 0.222429,-0.65855 -0.03986,-0.72745 0.0912,-0.20808 0.210942,-0.16416 0.05134,-0.48149 -0.0684,-1.19515 -0.07414,-0.17909"
               style="fill:none;stroke:#000000;stroke-width:1.5;stroke-linecap:butt;stroke-linejoin:round;stroke-miterlimit:10;stroke-opacity:1;stroke-dasharray:none"
               id="path16775" />
            <path
               d="m 170.24229,158.90795 -0.0228,-0.0135 -0.31363,0.13209 -0.11974,-0.0503 0.34774,-0.45652 -0.49603,-0.002 -0.14828,-0.23808 -0.30806,0.19354 -0.39352,-0.40712 -0.37645,-0.0129 -0.0855,-0.26538 -0.25097,-0.12011 -0.0113,-0.29968 -0.37646,-0.37872 -0.30806,0.0724 -0.32494,-0.4869 -0.12549,0.0395 -0.04,0.16297 -0.1368,-0.0123 -0.38202,-0.4793 -0.49064,-0.1981 0,-0.21426 0.42206,-0.21694 0.12549,-0.17876 -0.1368,-0.57423 -0.13123,0.0272 -0.114,0.27745 -0.67877,0.059 -0.2052,-0.0966 -0.0228,-0.6614 -0.70157,-0.24659 -0.0171,-0.59607 -0.51326,-0.40738 -0.50768,-0.66654 -0.50752,-0.13011 -0.10268,-0.73634 -0.10826,-0.17009 -0.4506,-0.25154 -0.12548,-0.69714 -0.5874,-0.1997 -0.46192,-0.38455 -0.20537,-0.3031 -0.0513,-0.42808 -0.22818,-0.47613 -0.44468,-0.25981 -0.0343,-0.23108 -0.26228,-0.42963 -0.76997,-0.70661 -0.0684,-0.29654 -0.73012,-0.81348 -0.7242,-0.12812 -0.34791,-0.22609 -0.14829,-0.3136 -0.0799,-0.82647 -0.10826,-0.0771"
               style="fill:none;stroke:#000000;stroke-width:1.5;stroke-linecap:butt;stroke-linejoin:round;stroke-miterlimit:10;stroke-opacity:1;stroke-dasharray:none"
               id="path16777" />
            <path
               d="m 170.24229,165.33242 -0.29083,-0.076 -0.44486,-0.43335 0,-0.51868 -0.37071,-0.0832 -0.405,0.16318 -0.84969,-0.295 -0.18257,-0.26302 -0.0512,-0.45728 -0.48489,-0.0621 -0.0969,-0.36337 -0.25654,-0.0423 0.19963,-0.52002 -0.18832,-0.5975 -0.43337,-0.16759 -0.34217,-0.45546 -0.27377,0.034"
               style="fill:none;stroke:#000000;stroke-width:1.5;stroke-linecap:butt;stroke-linejoin:round;stroke-miterlimit:10;stroke-opacity:1;stroke-dasharray:none"
               id="path16779" />
            <path
               d="m 152.31746,176.67077 0.11418,-0.10131 0.25654,-0.0422 0.19963,-0.1517 0.22242,0.009 0.13123,-0.20145 0.62726,-0.0649 0.22243,-0.29033 0.43337,-0.26968 0.10268,-0.35172 0.50195,-0.61498 0.0569,-0.30858 0.4962,-0.40286 -0.1368,-0.85686 -0.17683,0.003 -0.0799,-0.2738 -0.2052,0.0962 -0.16552,-0.32325 -0.36497,-0.0823 -0.114,-0.23736 0.17109,-0.12846 -0.4506,-0.36412 0.0799,-0.33766 -0.38777,-0.25032 0.14255,-0.25171 -0.30806,-0.29361 0.26246,-0.14152 0.006,-0.0971 -0.8784,-0.67356 -0.38777,-0.10539 -0.17109,-0.17982 -0.006,-0.28847 -0.24523,0.0635 0.27377,-0.30132 -0.38777,-0.23715 0.0571,-0.29644 -0.27952,-0.67729 0.16534,-0.18218 -0.14254,-0.17012 -0.0684,-0.34352 0.29083,-0.39468 -0.14254,-0.15821 0.0684,-0.21564 -0.33643,0.037 -0.0343,-0.73417 -0.22243,-0.0485 0.0115,-0.24659 -0.35366,-0.039 0.1368,-0.41677 -0.24523,-0.0339 -0.27359,-0.20595 -0.37646,-0.12474 -0.0399,-0.13692 0.0855,-0.17088 -0.22817,-0.45644 -0.2052,0.0814 -0.10269,-0.45546 -0.33643,-0.0762 -0.14828,-0.157 -0.04,-0.24171 0.32511,-0.34181 -0.0171,-0.32465"
               style="fill:none;stroke:#000000;stroke-width:1.5;stroke-linecap:butt;stroke-linejoin:round;stroke-miterlimit:10;stroke-opacity:1;stroke-dasharray:none"
               id="path16781" />
            <path
               d="m 149.7054,162.07959 -0.0228,-0.13025 0.56459,0.18029 0.85561,-0.0321 0.73568,0.17967 0.92957,-0.10329 0.41632,0.0841 1.14068,-0.15142 0.38203,-0.10719 0.55886,-0.38715 0.59314,-0.10148 0.74143,-0.27491 0.50751,-0.011 0.9924,-0.38689 0.39926,0.005 0.85543,0.45694 0.22817,-0.0373 0.47323,-0.45568 0.23391,-0.0765 0.41057,0.28933 0.58166,0.079 0.31937,-0.0971 0.35366,-0.55748 0.4278,-0.24061 0.16534,0.0907 0.14829,0.35575 0.28508,0.33942 0.0285,0.50507 0.37645,0.11946 0.36497,0.38519 0.54755,0.034 0.36497,-0.17841 0.45617,0.0147 0.14829,-0.11814 0.14271,-0.36734 0.33069,-0.17862"
               style="fill:none;stroke:#000000;stroke-width:1.5;stroke-linecap:butt;stroke-linejoin:round;stroke-miterlimit:10;stroke-opacity:1;stroke-dasharray:none"
               id="path16783" />
            <path
               d="m 176.88069,162.87945 -0.23392,0.33455 -0.18814,-0.3057 -0.27952,0.0872 -0.0113,-0.26025 -0.24523,0.0327 -0.50194,-0.60486 -0.32494,-0.0372 -0.0799,0.23355 -0.10268,0.018 -0.30232,-0.84344 -0.33643,-0.32314 -0.30231,0.2069 -0.0684,-0.36884 -0.23374,0.32645 -0.35366,-0.0411 -0.0399,-0.0765 0.11975,-0.1838 -0.0456,-0.12338 -0.50195,-0.11957 -0.20537,0.27315 -0.0741,-0.0141 -0.17109,-0.50015 -0.1368,-0.0129 -0.13697,0.17172 -0.0741,-0.32669 -0.53032,-0.0753 -0.0741,0.21098 -0.12549,0.005 -0.20519,-0.52178 -0.31381,-0.0682 -0.0569,-0.72774 -0.50194,-0.33707"
               style="fill:none;stroke:#000000;stroke-width:1.5;stroke-linecap:butt;stroke-linejoin:round;stroke-miterlimit:10;stroke-opacity:1;stroke-dasharray:none"
               id="path16785" />
            <path
               d="m 173.38466,176.67077 -0.0228,-0.0699 -0.0171,-0.47908 0.18814,-0.35205 -0.29657,-0.35163 -0.14828,-0.47602 -0.44486,-0.54194 -0.21669,-0.49121 0.11975,-0.50348 -0.0456,-0.44568 0.114,-0.30611 -0.0912,-0.11386 -0.2052,0.0297 -0.0571,-0.15249 0.34217,-0.9624 -0.17683,-0.44049 0.0912,-0.36275 -0.36497,-0.18837 0.13698,-0.5642 -0.11975,-0.55199 0.16535,-0.26691 -0.20538,-0.27845 0.0628,-0.26517 -0.19963,-0.90698 -0.57608,-0.60402 0.0856,-0.5592 -0.15403,-0.34006 -0.405,0.0581 -0.26803,-0.16341 -0.18814,-0.62445 -0.24523,-0.0639"
               style="fill:none;stroke:#000000;stroke-width:1.5;stroke-linecap:butt;stroke-linejoin:round;stroke-miterlimit:10;stroke-opacity:1;stroke-dasharray:none"
               id="path16787" />
            <path
               d="m 172.53497,173.05278 0.34218,0.0139 0.0513,-0.22829 0.2052,0 0.22817,-0.16127 0.0399,-0.29232 0.0856,-0.0475 0.0343,0.28346 0.15386,0.098 0.10268,0.30927 0.22817,-0.0531 0.12549,0.17765 0.19389,0.0582 0.21094,-0.29907 0.11974,0.17072 0.21686,-0.0891 0.0627,0.13342 -0.14829,0.19469 0.26803,-0.0284 0.33086,0.25972 -0.10269,-0.38617 0.1368,-0.24528 0.0914,-0.01 0.0171,0.2763 0.16534,-0.1144 0.18832,0.0841 0.25654,-0.19473 0.0684,-0.38141 0.11974,-0.0525 0.21686,0.17269 0.1824,-0.32896 -0.0855,-0.25129 0.30789,-0.54585 -0.0627,-0.47148 0.10826,-0.23077 -0.0627,-0.22198 0.46766,-0.52533 0.0855,-0.49526 0.3822,-0.51907 0.0741,-0.38657 -0.10843,-0.34281 -0.25097,-0.32198 0.0686,-0.87315 -0.16552,-0.29576 0.10843,-0.0944 -0.11974,-0.32463 0.0228,-0.46004 -0.19963,-0.18638 0.0285,-0.13986 0.14255,-0.0607 -0.0969,-0.15583 0.19389,-0.11565 0.0969,-0.66728 -0.32511,-0.84453 -0.2052,-0.14215 -0.006,-0.32343 -0.14829,-0.15886 0.0741,-0.0961 -0.17108,-0.2423"
               style="fill:none;stroke:#000000;stroke-width:1.5;stroke-linecap:butt;stroke-linejoin:round;stroke-miterlimit:10;stroke-opacity:1;stroke-dasharray:none"
               id="path16789" />
            <path
               d="m 84.696017,141.93187 -0.171085,-0.0495 -0.239485,0.0588 -0.256716,0.21484 -0.268028,-0.0549 0.171086,-0.49591 -0.0684,-0.19453 -0.347914,-0.23756 -0.08546,-0.66959 -0.239659,-0.34401 0.01149,-0.40781 -0.216686,-0.37759 -0.154029,-0.7419 -0.0057,-0.46668 0.416314,-0.505 -0.416314,-0.0366 -0.233742,-0.55336 -0.256715,-0.20721 -0.182573,0.40505 -0.142542,-0.0326 -0.336428,-0.50905 0,-0.43206 -0.176829,-0.50049 0.10843,-0.39463 -0.148286,-0.29529 -0.10843,-0.99727 0.336428,-0.71121 0.291002,-0.35931 0.0228,-0.49165 0.245229,-0.46252 0.199628,-0.10478 0.558857,0 0.359227,-0.39167 -0.165342,-0.67982 -0.290828,-0.0263 -0.285259,0.1238 -0.0912,-0.15204 0.176829,-0.23763 0,-0.23156 0.136799,-0.10841 -0.06266,-0.27353 0.10843,-0.28239 0,-0.42754 0.41057,-0.17203 0.0912,-0.29429 -0.05709,-0.43894 0.416488,-0.27979 0.08546,-0.17984 -0.0057,-0.38952 0.13123,-0.18001 -0.199629,-0.0508 -0.0456,-0.28566 0.13123,-0.90192 0.553113,-0.66487 0.296571,-0.15551"
               style="fill:none;stroke:#000000;stroke-width:1.5;stroke-linecap:butt;stroke-linejoin:round;stroke-miterlimit:10;stroke-opacity:1;stroke-dasharray:none"
               id="path16791" />
            <path
               d="m 84.696017,125.04808 -0.199629,-0.59948 -0.239485,-0.0646 -0.136973,-0.151 0.10843,-0.40287 -0.09694,-0.56728 0.336428,-0.37284 0.228172,-0.46171"
               style="fill:none;stroke:#000000;stroke-width:1.5;stroke-linecap:butt;stroke-linejoin:round;stroke-miterlimit:10;stroke-opacity:1;stroke-dasharray:none"
               id="path16793" />
            <path
               d="m 84.696017,115.6911 -0.279515,-0.0745 0.0057,-0.84063 -0.307884,-0.25864 -0.245228,-0.55211 -0.433545,-0.44042 -0.182398,-0.88815 -0.347915,-0.21374 0.256541,-0.20063 0.02854,-0.13817 -0.54737,-1.40672"
               style="fill:none;stroke:#000000;stroke-width:1.5;stroke-linecap:butt;stroke-linejoin:round;stroke-miterlimit:10;stroke-opacity:1;stroke-dasharray:none"
               id="path16795" />
            <path
               d="m 85.089531,144.50725 -0.228172,-0.55672 0.416314,-0.027 0.273772,-0.16481 0.13123,-0.22156 -0.02854,-0.28626 -0.233741,-0.16629 -0.142717,-0.70461 -0.262284,-0.35622 -0.319372,-0.0919"
               style="fill:none;stroke:#000000;stroke-width:1.5;stroke-linecap:butt;stroke-linejoin:round;stroke-miterlimit:10;stroke-opacity:1;stroke-dasharray:none"
               id="path16797" />
            <path
               d="m 84.696017,125.29732 0.07414,-0.0374 -0.07414,-0.21189"
               style="fill:none;stroke:#000000;stroke-width:1.5;stroke-linecap:butt;stroke-linejoin:round;stroke-miterlimit:10;stroke-opacity:1;stroke-dasharray:none"
               id="path16799" />
            <path
               d="m 84.696017,122.4283 0.0228,-0.0485 0.473401,0.44203 0.655799,-0.33355 0.131229,-0.7304 -0.250972,-0.40591 -0.05709,-0.54161 -0.227998,-0.13819 0.03411,-0.2574 -0.125486,-0.5041 0.21686,-0.37286 -0.325115,-0.35393 -0.01149,-0.12763 0.131229,-0.59178 -0.125486,-0.53395 0.07989,-0.0997 0.199628,0.0557 0.03986,-0.0976 0.0057,-0.86025 -0.114173,-0.28728 0.319371,-0.66602 -0.0912,-0.10622 -0.347915,-0.0593 -0.0228,-0.1836 -0.416314,0.11669 -0.193886,-0.0518"
               style="fill:none;stroke:#000000;stroke-width:1.5;stroke-linecap:butt;stroke-linejoin:round;stroke-miterlimit:10;stroke-opacity:1;stroke-dasharray:none"
               id="path16801" />
            <path
               d="m 156.85149,144.50725 -0.3594,-0.26347 -0.49603,-0.65913 -0.31937,-0.21633 -0.51343,-0.13923 0.10269,-0.60664 -0.24523,-0.45521 -1.2432,-1.10598 -0.0172,-0.54645 0.23392,-0.2253 0.21094,-0.52985 0.0856,-1.09949 -0.097,-0.18812 -0.5646,-0.1755 0.30232,-0.54679 0.0341,-0.29755 -0.31937,-0.52555 0.0115,-0.604 -0.13123,-0.35224 -0.28509,-0.3131 -0.0458,-0.44753 -0.52457,-0.43978 0.0399,-0.13775 0.4278,-0.32113 0.12548,-0.27507 -0.31937,-1.33091 -0.17683,-0.24624 -0.55885,-0.19199 -0.22818,-0.29878 0.31938,-0.74065 -0.0514,-0.65464 -0.15977,-0.45388 0.46766,-0.63092 0.0172,-0.28124 -0.0172,-0.21793 -0.27934,-0.28091 -0.27952,-0.54239"
               style="fill:none;stroke:#000000;stroke-width:1.5;stroke-linecap:butt;stroke-linejoin:round;stroke-miterlimit:10;stroke-opacity:1;stroke-dasharray:none"
               id="path16803" />
            <path
               d="m 170.24229,135.95841 -0.0969,0.12341 -0.14829,-0.024 -0.0741,-0.30767 -0.13123,-0.0521 -0.45043,0.37642 -0.39351,0.13876 -0.30232,0.63877 -0.29657,0.17062 0,0.39762 -0.39351,0.42728 -0.11975,0.28605 -0.25097,0.1171 -0.66154,0.66257 -0.30789,-0.0704 -0.0343,-0.56829 -0.4278,-0.002 -0.23949,-0.49689 -0.27951,-0.12446 -0.16535,-0.25496 -0.96942,-0.0513 0.0171,1.044 0.1596,0.428 -0.14828,0.42436 -0.43337,0.35448 -0.22243,0.44575 -0.26803,0.20087 -0.0912,0.29958 -0.6102,0.53178 -0.46209,0.23699 -0.25654,0.41349 -0.39351,0.25521 -0.51326,0.57293 -0.30231,0.0112 0.0399,0.2437 -0.0741,0.14717 -0.7926,0.50549 -0.17683,0.32244 -0.34217,0.0844 -0.23966,-0.11141 -0.17665,0.10417 -0.59315,-0.12464 -0.19388,0.0515 -0.41632,-0.49859 -0.0343,-0.38479 -0.35923,-0.3262 -0.22243,0.11493 -0.18257,-0.11952 -0.23949,0.17433 -0.22817,-0.0693 -0.14254,-0.16185 -0.14254,0.17833 -0.22243,0.066 -0.15977,-0.10237 -0.25098,0.0436 -0.22799,0.13929 0.006,0.31223 -0.23392,0.13527"
               style="fill:none;stroke:#000000;stroke-width:1.5;stroke-linecap:butt;stroke-linejoin:round;stroke-miterlimit:10;stroke-opacity:1;stroke-dasharray:none"
               id="path16805" />
            <path
               d="m 151.99235,128.13918 -0.0284,-0.21223 0.27934,-0.9947 0.04,-1.09534 0.16534,-0.507 -0.0684,-1.33165 -0.23966,-0.28115 -0.85542,-0.0115 -0.28509,-0.18184 -0.0456,-1.19847 -0.31937,-0.55235 0.0228,-0.61848 -0.25097,-0.69173 0.27377,-2.43869 0.95237,-1.62176"
               style="fill:none;stroke:#000000;stroke-width:1.5;stroke-linecap:butt;stroke-linejoin:round;stroke-miterlimit:10;stroke-opacity:1;stroke-dasharray:none"
               id="path16807" />
            <path
               d="m 179.48126,119.34312 -0.22817,0.11244 -0.0797,0.28449 -0.45634,0.003 -0.114,0.20903 0.18814,1.56488 -0.16534,1.47423 0.0571,0.51101 0.25654,0.46566 0.9696,0.71956 0.10268,0.50075 0.61595,0.5051 0.49045,0.5786 -0.5646,0.64914 -0.38794,0.22409 -0.228,-0.0345 -0.60463,0.25582 -0.29083,0.39711 -0.62168,0.5009 -0.35923,0.46741 -0.0912,0.40168 0.0456,0.24484 -0.59314,1.09711 -0.0343,0.35002 -0.39351,0.10627 -0.27378,0.18835 -0.0569,0.24277 -0.21111,0.20032 -0.53032,0.14181 -0.0969,0.17736 -0.26228,0.15649 -0.16552,-0.0618 -0.13106,-0.19547 -0.14271,0.0168 -1.02077,0.87077 -0.36497,0.46408 -0.43912,0.26406 -0.0456,0.64232 -0.46208,0.4156 -0.228,0.36446 -1.42577,0.24464 -0.25672,0.28599 -0.25097,0.12088 -0.38777,0.48675"
               style="fill:none;stroke:#000000;stroke-width:1.5;stroke-linecap:butt;stroke-linejoin:round;stroke-miterlimit:10;stroke-opacity:1;stroke-dasharray:none"
               id="path16809" />
            <path
               d="m 82.64299,110.67737 -0.01149,-0.0306 -0.01706,-1.04189 -0.490457,-0.31045 -0.484887,-0.0559 -0.176655,-0.28901 0.09694,-0.34088 0.604456,-0.18449 0.142543,-0.20482 -0.245229,-0.21546 0.148286,-0.55006 0.222428,-0.29346 -0.02854,-0.73818 -0.102686,-0.24346 0.467657,-1.15705 -0.239485,-0.19554 -0.176829,-0.35956 0.01723,-0.15066 0.193885,-0.0373 -0.199629,-0.35012 0.216685,-0.63239 -0.393514,-0.71367 -0.273772,-0.0812 -0.330684,0.1886 -0.165516,-0.0509 -0.08546,-0.32215 -0.347915,-0.39447 -0.307884,-0.16053 -0.09694,-0.45644 0.142543,-0.35763 -0.06283,-0.22889 -0.536057,-0.11978 -0.484713,0.23954 -0.279516,-0.5749 -0.461913,0.0432 -0.119743,-0.0724 -0.131229,-0.758828 0.08563,-0.659547 -0.102686,-0.09746 -0.199629,0.160013 -0.205373,-0.06896 -0.02854,-0.483824 -0.256541,-0.623204 0.03429,-0.14252 0.222255,-0.144734 -0.102512,-0.305257 0.205198,-0.154816 -0.153855,-0.20197 -0.233916,0.0635 -0.05709,-0.0671 0.308058,-0.14849 0.119743,-0.563718 0.262285,-0.20444 -0.193886,-0.07366 -0.125486,-0.214643 -0.0228,-0.571212 -0.330685,-0.518814 0.171086,-0.593887 0.336428,-0.612578 -0.136799,-0.597417 0.0912,-0.228073 -0.336428,-0.313149 -0.02854,-0.540285 0.838372,-2.432389 0.205198,-0.263628 -0.113999,-0.295666 0.102686,-0.414753 -0.07989,-0.446318 0.239485,-1.362327 0.290828,-0.43985 0.456344,-0.333035 0.0912,-0.320836 -0.302315,-0.516689 0.09712,-0.358641 -0.188316,-0.09566 -0.188142,-0.302662 -0.695829,-0.03074 -0.507514,-0.378164 -0.507687,-0.03439 -0.07414,-0.204949 -0.923827,-0.65565 -0.125486,-0.812843 0.199629,-1.49322 -0.07989,-0.683033 -0.393514,-0.448446 0.125486,-0.329958 -0.136799,-0.33902 -0.38777,-0.390295 0.313627,-0.192974 -0.01149,-0.262719 -0.119743,-0.195404 -0.245228,0.06145 -0.268029,-0.07405 -0.154029,0.05552 -0.233741,0.35966 -0.165517,-0.143495 -0.08546,-0.390891 0.165342,-0.282242 -0.136799,-0.347619 0.182398,-0.933639 0.336602,-0.297964 0.05134,-0.183593 -0.325115,-0.648807"
               style="fill:none;stroke:#000000;stroke-width:1.5;stroke-linecap:butt;stroke-linejoin:round;stroke-miterlimit:10;stroke-opacity:1;stroke-dasharray:none"
               id="path16811" />
            <path
               d="m 75.211819,74.709593 -0.05709,-0.119861 0.06283,-0.57971 -0.724373,0.114084 -0.09694,-0.111809 0.08563,-0.159624 -0.05709,-0.543189 -0.102686,-0.105951 0.513256,-0.740563 0.07414,-0.02316 0.07414,0.207864 0.188142,-0.136836 0.03429,-0.309687 -0.319371,-0.68876 -0.279516,0.158078 -0.125312,-0.06217 -0.370714,-1.047539 0.113999,-0.229754 -0.07989,-0.31923 -0.575913,-0.745276 0.650056,-1.750452 -0.125486,-0.388376 0.108429,-0.405992 -0.0912,-0.687331 -0.188316,-0.208316 0.154029,-0.498833 -0.210941,-0.835096 0.193885,-0.624956 -0.07414,-0.62197 0.216685,-0.402384 -0.382201,-0.292067 -0.06266,-0.239601 0.376458,-0.555909 0.0228,-0.562608 0.370714,-0.610056 0.119743,-0.641475 -0.06283,-0.249309 0.245228,-0.32769 0.0228,-0.512354 -0.307885,-0.269111 -0.490457,-0.04307 -0.273771,-0.31543 -0.125486,0.02384 -0.159599,0.366928 -0.273772,-0.02769 -0.199629,-0.226111 -0.07989,-0.43415 -0.404827,-0.500754 0.0912,-0.222828 0.387771,-0.354159 -0.136799,-0.563702 0.262285,-0.369461 -0.473401,-0.36744 -0.165342,-0.436676 0.09694,-0.256413 -0.06266,-0.352746 0.171086,-1.512269 -0.199629,-1.203479 0.47897,-0.746152 0.256715,-0.125763 0.980914,-0.08597 0.519,-0.296295 0.0684,-0.143083 -0.05709,-0.893364 -0.307884,0.01961 -0.553287,-0.182622 -0.302141,-0.974692 0.507513,-0.117841 0.06283,-0.253823 -0.131229,-0.359409 0.513256,-0.06375 0.119743,-0.255747 0.319371,-0.118943 0.0456,-0.684804 -0.632999,-0.389741 -0.03429,-0.133398 0.119916,-0.262208 0.307885,0.08135 -0.10843,-0.423492 0.621687,-0.738114 -0.0684,-0.334279 -0.5646,-0.876283 -0.5418,-0.267573 0.0057,-0.187458 0.313628,-0.545346 -0.148286,-0.539722 0.171085,-0.424661 -0.353658,-0.422613 0.268029,-0.282522 0.5418,0.158027 0.439288,-0.179588 1.288798,0.07978 0.547543,-0.179565 0.627256,-0.03753 0.239659,-0.180563 0.102512,-0.432405 0.205373,-0.288778 -0.15403,-0.353771 -0.353484,-0.104113 -0.205372,-0.530515 0.05134,-0.65712 -0.330858,-0.444301 -0.45617,0.01527 -0.792772,0.445082 -0.872485,-0.319702 -0.707316,0.223269 -0.227998,-0.269923 -0.182572,-0.03611 -0.279341,0.11409 -0.279516,-0.04021 -0.536056,0.238653 -0.211116,-0.122131 0.09137,-1.094604 0.450427,-0.01849 0.615943,-0.337525 0.701573,0.14341 0.364971,-0.358579 0.513256,0.054 0.199629,-0.132247 L 75.827762,36"
               style="fill:none;stroke:#000000;stroke-width:1.5;stroke-linecap:butt;stroke-linejoin:round;stroke-miterlimit:10;stroke-opacity:1;stroke-dasharray:none"
               id="path16813" />
          </g>
        </g>
        <g
           id="g16815">
          <g
             id="g16817"
             clip-path="url(#clipPath16819)">
            <path
               d="m 56.180594,27.370126 0,304.786134 0,0"
               style="fill:none;stroke:#000000;stroke-width:1;stroke-linecap:butt;stroke-linejoin:round;stroke-miterlimit:10;stroke-opacity:1;stroke-dasharray:1, 1;stroke-dashoffset:0"
               id="path16823" />
          </g>
        </g>
        <g
           id="g16825">
          <g
             id="g16827"
             clip-path="url(#clipPath16829)">
            <path
               d="m 84.696017,27.370126 0,304.786134 0,0"
               style="fill:none;stroke:#000000;stroke-width:1;stroke-linecap:butt;stroke-linejoin:round;stroke-miterlimit:10;stroke-opacity:1;stroke-dasharray:1, 1;stroke-dashoffset:0"
               id="path16833" />
          </g>
        </g>
        <g
           id="g16835">
          <g
             id="g16837"
             clip-path="url(#clipPath16839)">
            <path
               d="m 113.21144,27.370126 0,304.786134 0,0"
               style="fill:none;stroke:#000000;stroke-width:1;stroke-linecap:butt;stroke-linejoin:round;stroke-miterlimit:10;stroke-opacity:1;stroke-dasharray:1, 1;stroke-dashoffset:0"
               id="path16843" />
          </g>
        </g>
        <g
           id="g16845">
          <g
             id="g16847"
             clip-path="url(#clipPath16849)">
            <path
               d="m 141.72687,27.370126 0,304.786134 0,0"
               style="fill:none;stroke:#000000;stroke-width:1;stroke-linecap:butt;stroke-linejoin:round;stroke-miterlimit:10;stroke-opacity:1;stroke-dasharray:1, 1;stroke-dashoffset:0"
               id="path16853" />
          </g>
        </g>
        <g
           id="g16855">
          <g
             id="g16857"
             clip-path="url(#clipPath16859)">
            <path
               d="m 170.24229,27.370126 0,304.786134 0,0"
               style="fill:none;stroke:#000000;stroke-width:1;stroke-linecap:butt;stroke-linejoin:round;stroke-miterlimit:10;stroke-opacity:1;stroke-dasharray:1, 1;stroke-dashoffset:0"
               id="path16863" />
          </g>
        </g>
        <g
           id="g16865">
          <g
             id="g16867"
             clip-path="url(#clipPath16869)">
            <path
               d="m 198.75772,27.370126 0,304.786134 0,0"
               style="fill:none;stroke:#000000;stroke-width:1;stroke-linecap:butt;stroke-linejoin:round;stroke-miterlimit:10;stroke-opacity:1;stroke-dasharray:1, 1;stroke-dashoffset:0"
               id="path16873" />
          </g>
        </g>
        <g
           id="g16875">
          <g
             id="g16877"
             clip-path="url(#clipPath16879)">
            <path
               d="m 227.27314,27.370126 0,304.786134 0,0"
               style="fill:none;stroke:#000000;stroke-width:1;stroke-linecap:butt;stroke-linejoin:round;stroke-miterlimit:10;stroke-opacity:1;stroke-dasharray:1, 1;stroke-dashoffset:0"
               id="path16883" />
          </g>
        </g>
        <g
           id="g16885">
          <g
             id="g16887"
             clip-path="url(#clipPath16889)">
            <path
               d="m 255.78855,27.370126 0,304.786134 0,0"
               style="fill:none;stroke:#000000;stroke-width:1;stroke-linecap:butt;stroke-linejoin:round;stroke-miterlimit:10;stroke-opacity:1;stroke-dasharray:1, 1;stroke-dashoffset:0"
               id="path16893" />
          </g>
        </g>
        <g
           id="g16895">
          <g
             id="g16897"
             clip-path="url(#clipPath16899)">
            <path
               d="m 284.30398,27.370126 0,304.786134 0,0"
               style="fill:none;stroke:#000000;stroke-width:1;stroke-linecap:butt;stroke-linejoin:round;stroke-miterlimit:10;stroke-opacity:1;stroke-dasharray:1, 1;stroke-dashoffset:0"
               id="path16903" />
          </g>
        </g>
        <g
           id="g16905">
          <g
             id="g16907"
             clip-path="url(#clipPath16909)">
            <path
               d="m 56.180594,74.709593 256.638816,0 0,0"
               style="fill:none;stroke:#000000;stroke-width:1;stroke-linecap:butt;stroke-linejoin:round;stroke-miterlimit:10;stroke-opacity:1;stroke-dasharray:1, 1;stroke-dashoffset:0"
               id="path16913" />
          </g>
        </g>
        <g
           id="g16915">
          <g
             id="g16917"
             clip-path="url(#clipPath16919)">
            <path
               d="m 56.180594,110.67737 256.638816,0 0,0"
               style="fill:none;stroke:#000000;stroke-width:1;stroke-linecap:butt;stroke-linejoin:round;stroke-miterlimit:10;stroke-opacity:1;stroke-dasharray:1, 1;stroke-dashoffset:0"
               id="path16923" />
          </g>
        </g>
        <g
           id="g16925">
          <g
             id="g16927"
             clip-path="url(#clipPath16929)">
            <path
               d="m 56.180594,144.50725 256.638816,0 0,0"
               style="fill:none;stroke:#000000;stroke-width:1;stroke-linecap:butt;stroke-linejoin:round;stroke-miterlimit:10;stroke-opacity:1;stroke-dasharray:1, 1;stroke-dashoffset:0"
               id="path16933" />
          </g>
        </g>
        <g
           id="g16935">
          <g
             id="g16937"
             clip-path="url(#clipPath16939)">
            <path
               d="m 56.180594,176.67077 256.638816,0 0,0"
               style="fill:none;stroke:#000000;stroke-width:1;stroke-linecap:butt;stroke-linejoin:round;stroke-miterlimit:10;stroke-opacity:1;stroke-dasharray:1, 1;stroke-dashoffset:0"
               id="path16943" />
          </g>
        </g>
        <g
           id="g16945">
          <g
             id="g16947"
             clip-path="url(#clipPath16949)">
            <path
               d="m 56.180594,207.5488 256.638816,0 0,0"
               style="fill:none;stroke:#000000;stroke-width:1;stroke-linecap:butt;stroke-linejoin:round;stroke-miterlimit:10;stroke-opacity:1;stroke-dasharray:1, 1;stroke-dashoffset:0"
               id="path16953" />
          </g>
        </g>
        <g
           id="g16955">
          <g
             id="g16957"
             clip-path="url(#clipPath16959)">
            <path
               d="m 56.180594,237.45944 256.638816,0 0,0"
               style="fill:none;stroke:#000000;stroke-width:1;stroke-linecap:butt;stroke-linejoin:round;stroke-miterlimit:10;stroke-opacity:1;stroke-dasharray:1, 1;stroke-dashoffset:0"
               id="path16963" />
          </g>
        </g>
        <g
           id="g16965">
          <g
             id="g16967"
             clip-path="url(#clipPath16969)">
            <path
               d="m 56.180594,266.67738 256.638816,0 0,0"
               style="fill:none;stroke:#000000;stroke-width:1;stroke-linecap:butt;stroke-linejoin:round;stroke-miterlimit:10;stroke-opacity:1;stroke-dasharray:1, 1;stroke-dashoffset:0"
               id="path16973" />
          </g>
        </g>
        <g
           id="g16975">
          <g
             id="g16977"
             clip-path="url(#clipPath16979)">
            <path
               d="m 56.180594,295.44831 256.638816,0 0,0"
               style="fill:none;stroke:#000000;stroke-width:1;stroke-linecap:butt;stroke-linejoin:round;stroke-miterlimit:10;stroke-opacity:1;stroke-dasharray:1, 1;stroke-dashoffset:0"
               id="path16983" />
          </g>
        </g>
        <g
           id="g16985">
          <g
             id="g16987"
             clip-path="url(#clipPath16989)">
            <path
               d="m 56.180594,324 256.638816,0 0,0"
               style="fill:none;stroke:#000000;stroke-width:1;stroke-linecap:butt;stroke-linejoin:round;stroke-miterlimit:10;stroke-opacity:1;stroke-dasharray:1, 1;stroke-dashoffset:0"
               id="path16993" />
          </g>
        </g>
        <g
           id="g16995">
          <g
             id="g16997"
             clip-path="url(#clipPath16999)">
            <path
               d="m 113.21144,266.67738 142.57712,0 0,-156.00001 -142.57712,0 0,156.00001"
               style="fill:none;stroke:#0000ff;stroke-width:4.20462322;stroke-linecap:square;stroke-linejoin:round;stroke-miterlimit:10;stroke-opacity:1;stroke-dasharray:none"
               id="path17003" />
          </g>
        </g>
        <path
           d="m 56.180594,324 256.638816,0"
           style="fill:none;stroke:#000000;stroke-width:1;stroke-linecap:square;stroke-linejoin:round;stroke-miterlimit:10;stroke-opacity:1;stroke-dasharray:none"
           id="path17005" />
        <path
           d="m 312.81941,36 0,288"
           style="fill:none;stroke:#000000;stroke-width:1;stroke-linecap:square;stroke-linejoin:round;stroke-miterlimit:10;stroke-opacity:1;stroke-dasharray:none"
           id="path17007" />
        <path
           d="M 56.180594,36 312.81941,36"
           style="fill:none;stroke:#000000;stroke-width:1;stroke-linecap:square;stroke-linejoin:round;stroke-miterlimit:10;stroke-opacity:1;stroke-dasharray:none"
           id="path17009" />
        <path
           d="m 56.180594,36 0,288"
           style="fill:none;stroke:#000000;stroke-width:1;stroke-linecap:square;stroke-linejoin:round;stroke-miterlimit:10;stroke-opacity:1;stroke-dasharray:none"
           id="path17011" />
        <text
           transform="matrix(0.70710678,0.70710678,0.70710678,-0.70710678,48.294456,4.0087062)"
           id="text17013">
          <tspan
             style="font-size:12px;font-variant:normal;font-weight:normal;writing-mode:lr-tb;fill:#000000;fill-opacity:1;fill-rule:nonzero;stroke:none;font-family:DejaVu Sans;-inkscape-font-specification:DejaVuSans"
             x="0 7.632 15.264 21.264"
             y="0"
             sodipodi:role="line"
             id="tspan17015">75W</tspan>
        </text>
        <text
           transform="matrix(0.70710678,0.70710678,0.70710678,-0.70710678,76.781364,4.0087062)"
           id="text17017">
          <tspan
             style="font-size:12px;font-variant:normal;font-weight:normal;writing-mode:lr-tb;fill:#000000;fill-opacity:1;fill-rule:nonzero;stroke:none;font-family:DejaVu Sans;-inkscape-font-specification:DejaVuSans"
             x="0 7.632 15.264 21.264"
             y="0"
             sodipodi:role="line"
             id="tspan17019">70W</tspan>
        </text>
        <text
           transform="matrix(0.70710678,0.70710678,0.70710678,-0.70710678,105.21855,3.9092693)"
           id="text17021">
          <tspan
             style="font-size:12px;font-variant:normal;font-weight:normal;writing-mode:lr-tb;fill:#000000;fill-opacity:1;fill-rule:nonzero;stroke:none;font-family:DejaVu Sans;-inkscape-font-specification:DejaVuSans"
             x="0 7.632 15.264 21.264"
             y="0"
             sodipodi:role="line"
             id="tspan17023">65W</tspan>
        </text>
        <text
           transform="matrix(0.70710678,0.70710678,0.70710678,-0.70710678,133.70546,3.9092693)"
           id="text17025">
          <tspan
             style="font-size:12px;font-variant:normal;font-weight:normal;writing-mode:lr-tb;fill:#000000;fill-opacity:1;fill-rule:nonzero;stroke:none;font-family:DejaVu Sans;-inkscape-font-specification:DejaVuSans"
             x="0 7.632 15.264 21.264"
             y="0"
             sodipodi:role="line"
             id="tspan17027">60W</tspan>
        </text>
        <text
           transform="matrix(0.70710678,0.70710678,0.70710678,-0.70710678,162.21999,3.9645121)"
           id="text17029">
          <tspan
             style="font-size:12px;font-variant:normal;font-weight:normal;writing-mode:lr-tb;fill:#000000;fill-opacity:1;fill-rule:nonzero;stroke:none;font-family:DejaVu Sans;-inkscape-font-specification:DejaVuSans"
             x="0 7.632 15.264 21.264"
             y="0"
             sodipodi:role="line"
             id="tspan17031">55W</tspan>
        </text>
        <text
           transform="matrix(0.70710678,0.70710678,0.70710678,-0.70710678,190.7069,3.9645121)"
           id="text17033">
          <tspan
             style="font-size:12px;font-variant:normal;font-weight:normal;writing-mode:lr-tb;fill:#000000;fill-opacity:1;fill-rule:nonzero;stroke:none;font-family:DejaVu Sans;-inkscape-font-specification:DejaVuSans"
             x="0 7.632 15.264 21.264"
             y="0"
             sodipodi:role="line"
             id="tspan17035">50W</tspan>
        </text>
        <text
           transform="matrix(0.70710678,0.70710678,0.70710678,-0.70710678,219.0778,3.7324926)"
           id="text17037">
          <tspan
             style="font-size:12px;font-variant:normal;font-weight:normal;writing-mode:lr-tb;fill:#000000;fill-opacity:1;fill-rule:nonzero;stroke:none;font-family:DejaVu Sans;-inkscape-font-specification:DejaVuSans"
             x="0 7.632 15.264 21.264"
             y="0"
             sodipodi:role="line"
             id="tspan17039">45W</tspan>
        </text>
        <text
           transform="matrix(0.70710678,0.70710678,0.70710678,-0.70710678,247.56471,3.7324926)"
           id="text17041">
          <tspan
             style="font-size:12px;font-variant:normal;font-weight:normal;writing-mode:lr-tb;fill:#000000;fill-opacity:1;fill-rule:nonzero;stroke:none;font-family:DejaVu Sans;-inkscape-font-specification:DejaVuSans"
             x="0 7.632 15.264 21.264"
             y="0"
             sodipodi:role="line"
             id="tspan17043">40W</tspan>
        </text>
        <text
           transform="matrix(0.70710678,0.70710678,0.70710678,-0.70710678,276.16762,3.9645121)"
           id="text17045">
          <tspan
             style="font-size:12px;font-variant:normal;font-weight:normal;writing-mode:lr-tb;fill:#000000;fill-opacity:1;fill-rule:nonzero;stroke:none;font-family:DejaVu Sans;-inkscape-font-specification:DejaVuSans"
             x="0 7.632 15.264 21.264"
             y="0"
             sodipodi:role="line"
             id="tspan17047">35W</tspan>
        </text>
        <text
           transform="matrix(1,0,0,-1,25.97358,70.551731)"
           id="text17049">
          <tspan
             style="font-size:12px;font-variant:normal;font-weight:normal;writing-mode:lr-tb;fill:#000000;fill-opacity:1;fill-rule:nonzero;stroke:none;font-family:DejaVu Sans;-inkscape-font-specification:DejaVuSans"
             x="0 7.632 15.264 21.264"
             y="0"
             sodipodi:role="line"
             id="tspan17051">40S</tspan>
        </text>
        <text
           transform="matrix(1,0,0,-1,26.301705,106.58777)"
           id="text17053">
          <tspan
             style="font-size:12px;font-variant:normal;font-weight:normal;writing-mode:lr-tb;fill:#000000;fill-opacity:1;fill-rule:nonzero;stroke:none;font-family:DejaVu Sans;-inkscape-font-specification:DejaVuSans"
             x="0 7.632 15.264 21.264"
             y="0"
             sodipodi:role="line"
             id="tspan17055">35S</tspan>
        </text>
        <text
           transform="matrix(1,0,0,-1,26.301705,140.3175)"
           id="text17057">
          <tspan
             style="font-size:12px;font-variant:normal;font-weight:normal;writing-mode:lr-tb;fill:#000000;fill-opacity:1;fill-rule:nonzero;stroke:none;font-family:DejaVu Sans;-inkscape-font-specification:DejaVuSans"
             x="0 7.632 15.264 21.264"
             y="0"
             sodipodi:role="line"
             id="tspan17059">30S</tspan>
        </text>
        <text
           transform="matrix(1,0,0,-1,26.25483,172.3175)"
           id="text17061">
          <tspan
             style="font-size:12px;font-variant:normal;font-weight:normal;writing-mode:lr-tb;fill:#000000;fill-opacity:1;fill-rule:nonzero;stroke:none;font-family:DejaVu Sans;-inkscape-font-specification:DejaVuSans"
             x="0 7.632 15.264 21.264"
             y="0"
             sodipodi:role="line"
             id="tspan17063">25S</tspan>
        </text>
        <text
           transform="matrix(1,0,0,-1,26.25483,203.45263)"
           id="text17065">
          <tspan
             style="font-size:12px;font-variant:normal;font-weight:normal;writing-mode:lr-tb;fill:#000000;fill-opacity:1;fill-rule:nonzero;stroke:none;font-family:DejaVu Sans;-inkscape-font-specification:DejaVuSans"
             x="0 7.632 15.264 21.264"
             y="0"
             sodipodi:role="line"
             id="tspan17067">20S</tspan>
        </text>
        <text
           transform="matrix(1,0,0,-1,26.69233,233.14633)"
           id="text17069">
          <tspan
             style="font-size:12px;font-variant:normal;font-weight:normal;writing-mode:lr-tb;fill:#000000;fill-opacity:1;fill-rule:nonzero;stroke:none;font-family:DejaVu Sans;-inkscape-font-specification:DejaVuSans"
             x="0 7.632 15.264 21.264"
             y="0"
             sodipodi:role="line"
             id="tspan17071">15S</tspan>
        </text>
        <text
           transform="matrix(1,0,0,-1,26.69233,262.55173)"
           id="text17073">
          <tspan
             style="font-size:12px;font-variant:normal;font-weight:normal;writing-mode:lr-tb;fill:#000000;fill-opacity:1;fill-rule:nonzero;stroke:none;font-family:DejaVu Sans;-inkscape-font-specification:DejaVuSans"
             x="0 7.632 15.264 21.264"
             y="0"
             sodipodi:role="line"
             id="tspan17075">10S</tspan>
        </text>
        <text
           transform="matrix(1,0,0,-1,33.94233,291.09227)"
           id="text17077">
          <tspan
             style="font-size:12px;font-variant:normal;font-weight:normal;writing-mode:lr-tb;fill:#000000;fill-opacity:1;fill-rule:nonzero;stroke:none;font-family:DejaVu Sans;-inkscape-font-specification:DejaVuSans"
             x="0 7.632 13.632"
             y="0"
             sodipodi:role="line"
             id="tspan17079">5S</tspan>
        </text>
      </g>
      <image
         xlink:href="file:///home/leo/doc/graduacao/agu/topo-parana/parana10-718.png"
         width="500"
         height="500"
         id="image17304"
         x="181.42856"
         y="267.50507" />
      <text
         id="text17308"
         y="-660.80865"
         x="444.43127"
         style="font-size:28px;font-style:normal;font-weight:normal;fill:#000000;fill-opacity:1;stroke:none;font-family:Bitstream Vera Sans"
         xml:space="preserve"
         transform="matrix(0,1,-1,0,0,0)"><tspan
           y="-660.80865"
           x="444.43127"
           id="tspan17310"
           sodipodi:role="line">Height [m]</tspan></text>
    </g>
    <path
       d="m 245.03966,348.81233 309.54803,0 1.42857,341.22438 -310.9766,-1.42857 0,-339.79581"
       style="fill:none;stroke:#0000ff;stroke-width:5;stroke-linecap:square;stroke-linejoin:round;stroke-miterlimit:10;stroke-opacity:1;stroke-dasharray:none"
       id="path17003-0"
       sodipodi:nodetypes="ccccc" />
  </g>
</svg>
